<svg width="74" height="88" viewBox="0 0 74 88" fill="none" xmlns="http://www.w3.org/2000/svg">
<g opacity="0.3">
<path opacity="0.3" d="M51.6923 18.478C49.7038 18.4761 47.7972 17.6852 46.3911 16.2791C44.985 14.873 44.1942 12.9664 44.1922 10.9779V0.564454H10.6822C9.39649 0.563976 8.1233 0.816751 6.93536 1.30842C5.74742 1.8001 4.66797 2.52102 3.7587 3.42995C2.84943 4.33889 2.12813 5.41805 1.63602 6.60581C1.1439 7.79357 0.890625 9.06663 0.890625 10.3523V69.356C0.890625 70.6417 1.1439 71.9148 1.63602 73.1026C2.12813 74.2903 2.84943 75.3695 3.7587 76.2784C4.66797 77.1874 5.74742 77.9082 6.93536 78.3999C8.1233 78.8915 9.39649 79.1444 10.6822 79.1439H50.9103C53.5062 79.1439 55.9958 78.1127 57.8314 76.2771C59.6669 74.4415 60.6981 71.9519 60.6981 69.356V18.478H51.6923Z" fill="#0072FF"/>
</g>
<path d="M60.6973 18.478H51.6915C49.7029 18.4761 47.7964 17.6852 46.3903 16.2791C44.9842 14.873 44.1933 12.9664 44.1914 10.9779V0.564453L60.6973 18.478Z" fill="#0072FF"/>
<path d="M48.3939 31.0192H10.8428C10.482 31.0192 10.136 30.8759 9.88087 30.6208C9.62576 30.3657 9.48243 30.0197 9.48243 29.6589C9.48195 29.4799 9.5168 29.3027 9.58495 29.1372C9.6531 28.9717 9.75322 28.8213 9.87959 28.6946C10.006 28.5679 10.156 28.4674 10.3213 28.3988C10.4866 28.3302 10.6638 28.2949 10.8428 28.2949H48.3939C48.7556 28.2949 49.1025 28.4386 49.3583 28.6944C49.6141 28.9502 49.7579 29.2971 49.7579 29.6589C49.7569 30.02 49.6127 30.366 49.3571 30.621C49.1014 30.8761 48.755 31.0192 48.3939 31.0192Z" fill="#0072FF"/>
<path d="M48.3939 39.1559H10.8428C10.482 39.1559 10.136 39.0126 9.88087 38.7575C9.62576 38.5024 9.48243 38.1564 9.48243 37.7956C9.48195 37.6167 9.5168 37.4394 9.58495 37.2739C9.6531 37.1084 9.75322 36.958 9.87959 36.8313C10.006 36.7046 10.156 36.6041 10.3213 36.5355C10.4866 36.4669 10.6638 36.4316 10.8428 36.4316H48.3939C48.7556 36.4316 49.1025 36.5753 49.3583 36.8311C49.6141 37.0869 49.7579 37.4339 49.7579 37.7956C49.7569 38.1567 49.6127 38.5027 49.3571 38.7577C49.1014 39.0127 48.755 39.1559 48.3939 39.1559Z" fill="#0072FF"/>
<path d="M48.3939 47.2927H10.8428C10.6638 47.2927 10.4866 47.2574 10.3213 47.1888C10.156 47.1202 10.006 47.0197 9.87959 46.893C9.75322 46.7663 9.6531 46.6159 9.58495 46.4504C9.5168 46.2849 9.48195 46.1076 9.48243 45.9287C9.48243 45.5679 9.62576 45.2219 9.88087 44.9668C10.136 44.7117 10.482 44.5684 10.8428 44.5684H48.3939C48.755 44.5684 49.1014 44.7115 49.3571 44.9665C49.6127 45.2215 49.7569 45.5676 49.7579 45.9287C49.7579 46.2904 49.6141 46.6374 49.3583 46.8932C49.1025 47.1489 48.7556 47.2927 48.3939 47.2927Z" fill="#0072FF"/>
<path d="M33.5757 55.4294H10.8428C10.6638 55.4294 10.4866 55.3941 10.3213 55.3255C10.156 55.2569 10.006 55.1563 9.87959 55.0296C9.75322 54.9029 9.6531 54.7526 9.58495 54.5871C9.5168 54.4217 9.48195 54.2444 9.48243 54.0654C9.48243 53.7046 9.62576 53.3585 9.88087 53.1034C10.136 52.8483 10.482 52.7051 10.8428 52.7051H33.5757C33.9364 52.7051 34.2824 52.8483 34.5375 53.1034C34.7927 53.3585 34.936 53.7046 34.936 54.0654C34.9365 54.2444 34.9016 54.4217 34.8335 54.5871C34.7653 54.7526 34.6652 54.9029 34.5388 55.0296C34.4125 55.1563 34.2624 55.2569 34.0971 55.3255C33.9318 55.3941 33.7546 55.4294 33.5757 55.4294Z" fill="#0072FF"/>
<path d="M67.7984 62.6191H22.318C19.0919 62.6191 16.4766 65.2344 16.4766 68.4606V82.0203C16.4766 85.2465 19.0919 87.8618 22.318 87.8618H67.7984C71.0245 87.8618 73.6398 85.2465 73.6398 82.0203V68.4606C73.6398 65.2344 71.0245 62.6191 67.7984 62.6191Z" fill="#0072FF"/>
<path d="M23.1431 78.1758V80.8201H20.4043V78.1758H23.1431Z" fill="white"/>
<path d="M33.6689 78.1829C33.2125 79.0092 32.5248 79.6843 31.6903 80.1253C30.7502 80.606 29.7051 80.8448 28.6495 80.82H24.5176V69.8828H28.6495C29.7058 69.8571 30.7523 70.0906 31.6975 70.5629C32.5295 70.9948 33.2154 71.663 33.6689 72.4834C34.1392 73.3565 34.376 74.3363 34.3564 75.3277C34.3751 76.3226 34.1384 77.3056 33.6689 78.1829ZM30.8246 77.6337C31.1203 77.3302 31.3493 76.9684 31.4972 76.5713C31.645 76.1742 31.7083 75.7507 31.683 75.3277C31.7084 74.9053 31.6452 74.4822 31.4974 74.0857C31.3495 73.6892 31.1203 73.328 30.8246 73.0253C30.1619 72.4443 29.2964 72.1488 28.4167 72.2033H27.1655V78.4521H28.4167C29.2957 78.506 30.1605 78.2121 30.8246 77.6337Z" fill="white"/>
<path d="M43.8649 70.4328C44.6971 70.9054 45.3849 71.5957 45.8545 72.4296C46.3467 73.3103 46.5977 74.3052 46.5819 75.314C46.6003 76.3253 46.3493 77.3233 45.8545 78.2056C45.3858 79.0433 44.6964 79.7365 43.8613 80.2097C43.011 80.6953 42.047 80.9463 41.0678 80.9372C40.0887 80.9463 39.1247 80.6953 38.2744 80.2097C37.4393 79.7365 36.7498 79.0433 36.2812 78.2056C35.7864 77.3233 35.5353 76.3253 35.5537 75.314C35.5349 74.3049 35.786 73.3091 36.2812 72.4296C36.7522 71.5956 37.4412 70.9053 38.2744 70.4328C39.1247 69.9472 40.0887 69.6962 41.0678 69.7053C42.048 69.6967 43.0131 69.9477 43.8649 70.4328ZM38.991 73.0152C38.4544 73.657 38.1814 74.4786 38.2271 75.314C38.1813 76.146 38.4544 76.9642 38.991 77.6018C39.2523 77.8859 39.5727 78.1092 39.9296 78.2563C40.2865 78.4033 40.6713 78.4704 41.0569 78.4529C41.4413 78.4688 41.8245 78.401 42.18 78.254C42.5355 78.1071 42.8547 77.8845 43.1156 77.6018C43.6547 76.9653 43.9306 76.147 43.8867 75.314C43.9304 74.4822 43.6575 73.6648 43.1229 73.0261C42.8617 72.7418 42.5413 72.5183 42.1844 72.3713C41.8274 72.2242 41.4426 72.1572 41.0569 72.1749C40.6723 72.1573 40.2884 72.2233 39.9317 72.3684C39.575 72.5134 39.2541 72.7341 38.991 73.0152Z" fill="white"/>
<path d="M56.5198 70.8723C57.4423 71.6229 58.0697 72.6754 58.2912 73.8439H55.4905C55.3015 73.3596 54.9706 72.9438 54.5412 72.6509C54.0885 72.3561 53.5572 72.2053 53.0171 72.218C52.6605 72.2066 52.3061 72.2774 51.9812 72.425C51.6564 72.5726 51.3699 72.7931 51.144 73.0692C50.6378 73.7172 50.3798 74.5247 50.4165 75.3461C50.3795 76.1643 50.6377 76.9684 51.144 77.6121C51.3717 77.8854 51.6588 78.1032 51.9834 78.2488C52.308 78.3943 52.6616 78.4639 53.0171 78.4523C53.5574 78.4667 54.0891 78.3157 54.5412 78.0195C54.9682 77.7319 55.299 77.3226 55.4905 76.8446H58.2912C58.0661 78.0097 57.4392 79.0588 56.5198 79.8091C55.5304 80.5644 54.3082 80.9504 53.0644 80.9002C52.0844 80.9209 51.117 80.6771 50.2637 80.1945C49.4652 79.7304 48.8174 79.046 48.3978 78.2232C47.9458 77.3209 47.7199 76.3223 47.7395 75.3134C47.72 74.3044 47.946 73.3059 48.3978 72.4036C48.8174 71.5807 49.4652 70.8963 50.2637 70.4322C51.117 69.9497 52.0844 69.7058 53.0644 69.7265C54.3146 69.6934 55.537 70.0988 56.5198 70.8723Z" fill="white"/>
<path d="M66.412 80.82L64.1059 77.4156L62.1272 80.82H59.0938L62.5928 75.1895L58.9883 69.8828H62.1272L64.3715 73.1781L66.3028 69.8828H69.3218L65.87 75.3896L69.5509 80.82H66.412Z" fill="white"/>
</svg>
