<svg width="130" height="32" viewBox="0 0 130 32" fill="none" xmlns="http://www.w3.org/2000/svg">
<path d="M0.5 9.66C0.5 7.94314 0.500402 6.68606 0.582725 5.69476C0.66455 4.70945 0.824719 4.03159 1.11923 3.46464C1.64104 2.4601 2.4601 1.64104 3.46464 1.11923C4.03159 0.824719 4.70945 0.66455 5.69476 0.582725C6.68606 0.500402 7.94314 0.5 9.66 0.5H120.34C122.057 0.5 123.314 0.500402 124.305 0.582725C125.291 0.66455 125.968 0.824719 126.535 1.11923C127.54 1.64104 128.359 2.4601 128.881 3.46464C129.175 4.03159 129.335 4.70945 129.417 5.69476C129.5 6.68606 129.5 7.94314 129.5 9.66V22.34C129.5 24.0569 129.5 25.3139 129.417 26.3052C129.335 27.2905 129.175 27.9684 128.881 28.5354C128.359 29.5399 127.54 30.359 126.535 30.8808C125.968 31.1753 125.291 31.3354 124.305 31.4173C123.314 31.4996 122.057 31.5 120.34 31.5H9.66001C7.94314 31.5 6.68606 31.4996 5.69477 31.4173C4.70945 31.3354 4.03159 31.1753 3.46464 30.8808C2.4601 30.359 1.64104 29.5399 1.11923 28.5354C0.824719 27.9684 0.66455 27.2905 0.582725 26.3052C0.500402 25.3139 0.5 24.0569 0.5 22.34V9.66Z" fill="white"/>
<path d="M0.5 9.66C0.5 7.94314 0.500402 6.68606 0.582725 5.69476C0.66455 4.70945 0.824719 4.03159 1.11923 3.46464C1.64104 2.4601 2.4601 1.64104 3.46464 1.11923C4.03159 0.824719 4.70945 0.66455 5.69476 0.582725C6.68606 0.500402 7.94314 0.5 9.66 0.5H120.34C122.057 0.5 123.314 0.500402 124.305 0.582725C125.291 0.66455 125.968 0.824719 126.535 1.11923C127.54 1.64104 128.359 2.4601 128.881 3.46464C129.175 4.03159 129.335 4.70945 129.417 5.69476C129.5 6.68606 129.5 7.94314 129.5 9.66V22.34C129.5 24.0569 129.5 25.3139 129.417 26.3052C129.335 27.2905 129.175 27.9684 128.881 28.5354C128.359 29.5399 127.54 30.359 126.535 30.8808C125.968 31.1753 125.291 31.3354 124.305 31.4173C123.314 31.4996 122.057 31.5 120.34 31.5H9.66001C7.94314 31.5 6.68606 31.4996 5.69477 31.4173C4.70945 31.3354 4.03159 31.1753 3.46464 30.8808C2.4601 30.359 1.64104 29.5399 1.11923 28.5354C0.824719 27.9684 0.66455 27.2905 0.582725 26.3052C0.500402 25.3139 0.5 24.0569 0.5 22.34V9.66Z" stroke="#E0E2E6"/>
<path d="M19.05 22V11.2H25.95V12.6775H20.6175V15.7075H25.05V17.185H20.6175V20.5225H25.95V22H19.05ZM26.8512 22L29.8812 17.905L26.9187 13.9H28.7787L30.7962 16.6825L32.7912 13.9H34.6512L31.6887 17.905L34.7262 22H32.8587L30.7962 19.1275L28.7187 22H26.8512ZM36.075 12.5725V11.05H37.6425V12.5725H36.075ZM36.075 22V13.9H37.6425V22H36.075ZM44.5297 22C44.0197 22.1 43.5197 22.1425 43.0297 22.1275C42.5397 22.1125 42.1022 22.0175 41.7172 21.8425C41.3322 21.6675 41.0422 21.3925 40.8472 21.0175C40.6722 20.6825 40.5772 20.3425 40.5622 19.9975C40.5522 19.6475 40.5472 19.2525 40.5472 18.8125V11.65H42.1222V18.7375C42.1222 19.0625 42.1247 19.345 42.1297 19.585C42.1397 19.825 42.1922 20.0275 42.2872 20.1925C42.4672 20.5025 42.7522 20.68 43.1422 20.725C43.5372 20.765 43.9997 20.7475 44.5297 20.6725V22ZM38.9947 15.16V13.9H44.5297V15.16H38.9947ZM51.9329 22V12.6775H48.3404V11.2H57.0929V12.6775H53.5004V22H51.9329ZM60.6095 22.225C59.7995 22.225 59.097 22.0425 58.502 21.6775C57.907 21.3125 57.447 20.81 57.122 20.17C56.802 19.525 56.642 18.7825 56.642 17.9425C56.642 17.0975 56.807 16.355 57.137 15.715C57.467 15.07 57.9295 14.57 58.5245 14.215C59.1195 13.855 59.8145 13.675 60.6095 13.675C61.4195 13.675 62.122 13.8575 62.717 14.2225C63.312 14.5875 63.772 15.09 64.097 15.73C64.422 16.37 64.5845 17.1075 64.5845 17.9425C64.5845 18.7875 64.4195 19.5325 64.0895 20.1775C63.7645 20.8175 63.3045 21.32 62.7095 21.685C62.1145 22.045 61.4145 22.225 60.6095 22.225ZM60.6095 20.7475C61.3845 20.7475 61.962 20.4875 62.342 19.9675C62.727 19.4425 62.9195 18.7675 62.9195 17.9425C62.9195 17.0975 62.7245 16.4225 62.3345 15.9175C61.9495 15.4075 61.3745 15.1525 60.6095 15.1525C60.0845 15.1525 59.652 15.2725 59.312 15.5125C58.972 15.7475 58.7195 16.075 58.5545 16.495C58.3895 16.91 58.307 17.3925 58.307 17.9425C58.307 18.7925 58.502 19.4725 58.892 19.9825C59.282 20.4925 59.8545 20.7475 60.6095 20.7475ZM67.6646 22L65.1896 13.8925L66.7421 13.9L68.4371 19.4575L70.1471 13.9H71.4971L73.2071 19.4575L74.9021 13.9H76.4471L73.9721 22H72.7121L70.8221 16.135L68.9246 22H67.6646ZM83.4752 22V18.0175C83.4752 17.7025 83.4477 17.38 83.3927 17.05C83.3427 16.715 83.2427 16.405 83.0927 16.12C82.9477 15.835 82.7402 15.605 82.4702 15.43C82.2052 15.255 81.8577 15.1675 81.4277 15.1675C81.1477 15.1675 80.8827 15.215 80.6327 15.31C80.3827 15.4 80.1627 15.5475 79.9727 15.7525C79.7877 15.9575 79.6402 16.2275 79.5302 16.5625C79.4252 16.8975 79.3727 17.305 79.3727 17.785L78.3977 17.4175C78.3977 16.6825 78.5352 16.035 78.8102 15.475C79.0852 14.91 79.4802 14.47 79.9952 14.155C80.5102 13.84 81.1327 13.6825 81.8627 13.6825C82.4227 13.6825 82.8927 13.7725 83.2727 13.9525C83.6527 14.1325 83.9602 14.37 84.1952 14.665C84.4352 14.955 84.6177 15.2725 84.7427 15.6175C84.8677 15.9625 84.9527 16.3 84.9977 16.63C85.0427 16.96 85.0652 17.25 85.0652 17.5V22H83.4752ZM77.7827 22V13.9H79.1852V16.24H79.3727V22H77.7827ZM92.7038 22V18.0175C92.7038 17.7025 92.6763 17.38 92.6213 17.05C92.5713 16.715 92.4713 16.405 92.3213 16.12C92.1763 15.835 91.9688 15.605 91.6988 15.43C91.4338 15.255 91.0863 15.1675 90.6562 15.1675C90.3763 15.1675 90.1113 15.215 89.8613 15.31C89.6113 15.4 89.3913 15.5475 89.2013 15.7525C89.0163 15.9575 88.8688 16.2275 88.7588 16.5625C88.6538 16.8975 88.6013 17.305 88.6013 17.785L87.6263 17.4175C87.6263 16.6825 87.7638 16.035 88.0388 15.475C88.3138 14.91 88.7088 14.47 89.2238 14.155C89.7388 13.84 90.3613 13.6825 91.0913 13.6825C91.6513 13.6825 92.1213 13.7725 92.5013 13.9525C92.8813 14.1325 93.1888 14.37 93.4238 14.665C93.6638 14.955 93.8463 15.2725 93.9713 15.6175C94.0963 15.9625 94.1813 16.3 94.2263 16.63C94.2713 16.96 94.2938 17.25 94.2938 17.5V22H92.7038ZM87.0113 22V11.2H88.4138V17.0275H88.6013V22H87.0113ZM98.5348 22.225C97.9348 22.225 97.4323 22.115 97.0273 21.895C96.6223 21.67 96.3148 21.375 96.1048 21.01C95.8998 20.64 95.7973 20.235 95.7973 19.795C95.7973 19.385 95.8698 19.025 96.0148 18.715C96.1598 18.405 96.3748 18.1425 96.6598 17.9275C96.9448 17.7075 97.2948 17.53 97.7098 17.395C98.0698 17.29 98.4773 17.1975 98.9323 17.1175C99.3873 17.0375 99.8648 16.9625 100.365 16.8925C100.87 16.8225 101.37 16.7525 101.865 16.6825L101.295 16.9975C101.305 16.3625 101.17 15.8925 100.89 15.5875C100.615 15.2775 100.14 15.1225 99.4648 15.1225C99.0398 15.1225 98.6498 15.2225 98.2948 15.4225C97.9398 15.6175 97.6923 15.9425 97.5523 16.3975L96.0898 15.9475C96.2898 15.2525 96.6698 14.7 97.2298 14.29C97.7948 13.88 98.5448 13.675 99.4798 13.675C100.205 13.675 100.835 13.8 101.37 14.05C101.91 14.295 102.305 14.685 102.555 15.22C102.685 15.485 102.765 15.765 102.795 16.06C102.825 16.355 102.84 16.6725 102.84 17.0125V22H101.452V20.1475L101.722 20.3875C101.387 21.0075 100.96 21.47 100.44 21.775C99.9248 22.075 99.2898 22.225 98.5348 22.225ZM98.8123 20.9425C99.2573 20.9425 99.6398 20.865 99.9598 20.71C100.28 20.55 100.537 20.3475 100.732 20.1025C100.927 19.8575 101.055 19.6025 101.115 19.3375C101.2 19.0975 101.247 18.8275 101.257 18.5275C101.272 18.2275 101.28 17.9875 101.28 17.8075L101.79 17.995C101.295 18.07 100.845 18.1375 100.44 18.1975C100.035 18.2575 99.6673 18.3175 99.3373 18.3775C99.0123 18.4325 98.7223 18.5 98.4673 18.58C98.2523 18.655 98.0598 18.745 97.8898 18.85C97.7248 18.955 97.5923 19.0825 97.4923 19.2325C97.3973 19.3825 97.3498 19.565 97.3498 19.78C97.3498 19.99 97.4023 20.185 97.5073 20.365C97.6123 20.54 97.7723 20.68 97.9873 20.785C98.2023 20.89 98.4773 20.9425 98.8123 20.9425ZM104.937 22V10.975H106.505V22H104.937ZM108.907 22V10.975H110.475V22H108.907Z" fill="#DC2626"/>
</svg>
