<svg width="17" height="16" viewBox="0 0 17 16" fill="none" xmlns="http://www.w3.org/2000/svg">
<path d="M11 12.0003C11.3536 12.0003 11.6927 12.1408 11.9428 12.3908C12.1928 12.6409 12.3333 12.98 12.3333 13.3337C12.3333 12.98 12.4738 12.6409 12.7238 12.3908C12.9739 12.1408 13.313 12.0003 13.6666 12.0003C13.313 12.0003 12.9739 11.8598 12.7238 11.6098C12.4738 11.3598 12.3333 11.0206 12.3333 10.667C12.3333 11.0206 12.1928 11.3598 11.9428 11.6098C11.6927 11.8598 11.3536 12.0003 11 12.0003ZM11 4.00033C11.3536 4.00033 11.6927 4.1408 11.9428 4.39085C12.1928 4.6409 12.3333 4.98004 12.3333 5.33366C12.3333 4.98004 12.4738 4.6409 12.7238 4.39085C12.9739 4.1408 13.313 4.00033 13.6666 4.00033C13.313 4.00033 12.9739 3.85985 12.7238 3.6098C12.4738 3.35975 12.3333 3.02061 12.3333 2.66699C12.3333 3.02061 12.1928 3.35975 11.9428 3.6098C11.6927 3.85985 11.3536 4.00033 11 4.00033ZM6.33331 12.0003C6.33331 10.9395 6.75474 9.92204 7.50489 9.1719C8.25503 8.42175 9.27245 8.00033 10.3333 8.00033C9.27245 8.00033 8.25503 7.5789 7.50489 6.82875C6.75474 6.07861 6.33331 5.06119 6.33331 4.00033C6.33331 5.06119 5.91189 6.07861 5.16174 6.82875C4.41159 7.5789 3.39418 8.00033 2.33331 8.00033C3.39418 8.00033 4.41159 8.42175 5.16174 9.1719C5.91189 9.92204 6.33331 10.9395 6.33331 12.0003Z"  stroke="currentColor"  stroke-width="1.25" stroke-linecap="round" stroke-linejoin="round"/>
</svg>
