<svg width="40" height="40" viewBox="0 0 40 40" fill="none" xmlns="http://www.w3.org/2000/svg">
<rect width="40" height="40" rx="20" fill="#F1F0FA"/>
<path d="M20 15.0001C19.0111 15.0001 18.0444 15.2934 17.2222 15.8428C16.3999 16.3922 15.759 17.1731 15.3806 18.0867C15.0022 19.0004 14.9031 20.0057 15.0961 20.9756C15.289 21.9455 15.7652 22.8364 16.4645 23.5357C17.1637 24.2349 18.0546 24.7111 19.0246 24.9041C19.9945 25.097 20.9998 24.998 21.9134 24.6195C22.827 24.2411 23.6079 23.6002 24.1574 22.778C24.7068 21.9557 25 20.989 25 20.0001M21 11.0551C19.1461 10.8472 17.2733 11.2204 15.6408 12.1233C14.0083 13.0262 12.6967 14.4141 11.8874 16.095C11.0782 17.7759 10.8113 19.6667 11.1236 21.506C11.436 23.3452 12.3122 25.0419 13.631 26.3614C14.9498 27.6809 16.6461 28.5579 18.4852 28.8712C20.3242 29.1845 22.2152 28.9186 23.8965 28.1102C25.5779 27.3018 26.9664 25.9909 27.8701 24.3588C28.7738 22.7267 29.148 20.8542 28.941 19.0001M23 17.0001V14.0001L26 11.0001V14.0001H29L26 17.0001H23ZM23 17.0001L20 20.0001M19 20.0001C19 20.2654 19.1054 20.5197 19.2929 20.7072C19.4804 20.8948 19.7348 21.0001 20 21.0001C20.2652 21.0001 20.5196 20.8948 20.7071 20.7072C20.8946 20.5197 21 20.2654 21 20.0001C21 19.7349 20.8946 19.4806 20.7071 19.293C20.5196 19.1055 20.2652 19.0001 20 19.0001C19.7348 19.0001 19.4804 19.1055 19.2929 19.293C19.1054 19.4806 19 19.7349 19 20.0001Z" stroke="#5A5FBC" stroke-width="1.5" stroke-linecap="round" stroke-linejoin="round"/>
</svg>
