<svg width="73" height="87" viewBox="0 0 73 87" fill="none" xmlns="http://www.w3.org/2000/svg">
<g opacity="0.3">
<path opacity="0.3" d="M51.1719 17.7401C49.2034 17.7391 47.3159 16.9567 45.924 15.5648C44.532 14.1729 43.7496 12.2853 43.7487 10.3169V0.0136719H10.5783C9.30579 0.0136718 8.04577 0.264353 6.87018 0.751426C5.69459 1.2385 4.62639 1.95241 3.72677 2.85236C2.82715 3.75232 2.1137 4.82071 1.62706 5.99648C1.14043 7.17225 0.890153 8.43239 0.890626 9.70489V68.1005C0.890153 69.373 1.14043 70.6331 1.62706 71.8089C2.1137 72.9846 2.82715 74.053 3.72677 74.953C4.62639 75.8529 5.69459 76.5669 6.87018 77.0539C8.04577 77.541 9.30579 77.7917 10.5783 77.7917H50.3943C51.6668 77.7917 52.9268 77.541 54.1024 77.0539C55.278 76.5669 56.3461 75.8529 57.2457 74.953C58.1453 74.053 58.8588 72.9846 59.3455 71.8089C59.8321 70.6331 60.0824 69.373 60.0819 68.1005V17.7437L51.1719 17.7401Z" fill="#00C650"/>
</g>
<path d="M60.0813 17.7401H51.1713C49.2028 17.7391 47.3153 16.9567 45.9233 15.5648C44.5314 14.1729 43.749 12.2853 43.748 10.3169V0.0136719L60.0813 17.7401Z" fill="#00C650"/>
<path d="M67.1086 61.4297H22.0941C18.901 61.4297 16.3125 64.0182 16.3125 67.2113V80.6321C16.3125 83.8252 18.901 86.4137 22.0941 86.4137H67.1086C70.3017 86.4137 72.8901 83.8252 72.8901 80.6321V67.2113C72.8901 64.0182 70.3017 61.4297 67.1086 61.4297Z" fill="#00C650"/>
<path d="M31.2088 76.8262V79.447H28.498V76.8262H31.2088Z" fill="white"/>
<path d="M39.2555 68.623V76.0175C39.2555 77.1527 38.947 78.0251 38.3302 78.6347C37.9859 78.9522 37.5813 79.197 37.1403 79.3548C36.6993 79.5125 36.231 79.5798 35.7635 79.5526C35.2514 79.5801 34.7389 79.5058 34.2557 79.3341C33.7725 79.1623 33.3281 78.8964 32.9483 78.5519C32.2547 77.8823 31.9067 76.9223 31.9043 75.6719H34.4927C34.4927 76.6835 34.8779 77.1875 35.6411 77.1875C36.3071 77.1875 36.6383 76.7987 36.6383 76.0247V68.6303L39.2555 68.623Z" fill="white"/>
<path d="M43.5977 75.6503V79.4483H40.9805V68.623H45.2213C46.5053 68.623 47.4845 68.9411 48.1589 69.5771C48.5002 69.9115 48.7667 70.3144 48.9411 70.7593C49.1154 71.2042 49.1937 71.681 49.1705 72.1583C49.1803 72.7873 49.0252 73.4079 48.7205 73.9583C48.407 74.4949 47.9408 74.926 47.3813 75.1967C46.7073 75.5166 45.967 75.672 45.2213 75.6503H43.5977ZM46.5064 72.1583C46.5064 71.1983 45.9809 70.7183 44.9297 70.7183H43.5977V73.5371H44.9297C45.9809 73.5467 46.5064 73.0871 46.5064 72.1583Z" fill="white"/>
<path d="M58.8787 69.4945C59.7503 70.15 60.3367 71.1153 60.5167 72.1909H57.7447C57.5571 71.8142 57.2612 71.5021 56.8951 71.2945C56.4828 71.0496 56.0102 70.9249 55.5307 70.9345C55.1584 70.9194 54.7874 70.9863 54.444 71.1307C54.1006 71.275 53.7931 71.4932 53.5435 71.7697C53.0155 72.3995 52.7466 73.2063 52.7911 74.0269C52.7911 75.0565 53.0539 75.8474 53.5795 76.3994C53.8751 76.686 54.2272 76.9077 54.6134 77.0502C54.9997 77.1928 55.4114 77.2531 55.8223 77.2273C56.4097 77.238 56.9846 77.0573 57.4603 76.7126C57.946 76.3498 58.2969 75.8355 58.4575 75.2509H55.1491V73.3681H60.6463V75.9565C60.4362 76.6009 60.1038 77.1987 59.6671 77.7169C59.1941 78.2755 58.6058 78.725 57.9427 79.0345C57.1929 79.3809 56.3745 79.5533 55.5487 79.5386C54.5442 79.5649 53.5506 79.3252 52.6687 78.8437C51.8619 78.39 51.205 77.7106 50.7787 76.889C50.3206 75.9993 50.0917 75.0094 50.1127 74.009C50.0947 73.0146 50.3235 72.0312 50.7787 71.1469C51.2043 70.3271 51.8582 69.6482 52.6615 69.1922C53.5306 68.7144 54.5104 68.4747 55.5018 68.4973C56.707 68.4448 57.8954 68.7957 58.8787 69.4945Z" fill="white"/>
<path d="M38.4388 52.7206H22.5376C20.981 52.7187 19.4886 52.0995 18.3879 50.9987C17.2872 49.898 16.6679 48.4056 16.666 46.849V30.9478C16.6679 29.3911 17.2872 27.8988 18.3879 26.798C19.4886 25.6973 20.981 25.0781 22.5376 25.0762H38.4388C39.9951 25.0781 41.4871 25.6974 42.5873 26.7983C43.6874 27.8991 44.3059 29.3915 44.3068 30.9478V46.849C44.3059 48.4053 43.6874 49.8977 42.5873 50.9985C41.4871 52.0993 39.9951 52.7187 38.4388 52.7206ZM22.5376 27.6718C21.6691 27.6727 20.8363 28.0182 20.2222 28.6324C19.608 29.2465 19.2626 30.0792 19.2616 30.9478V46.849C19.2626 47.7175 19.608 48.5502 20.2222 49.1644C20.8363 49.7786 21.6691 50.124 22.5376 50.125H38.4388C39.307 50.124 40.1394 49.7785 40.753 49.1642C41.3666 48.5499 41.7113 47.7172 41.7113 46.849V30.9478C41.7113 30.0796 41.3666 29.2468 40.753 28.6326C40.1394 28.0183 39.307 27.6727 38.4388 27.6718H22.5376Z" fill="#00C650"/>
<path d="M43.01 43.8263V46.8503C43.009 48.0626 42.527 49.2249 41.6698 50.0821C40.8126 50.9393 39.6503 51.4214 38.438 51.4223H22.5368C21.3243 51.4223 20.1614 50.9406 19.3039 50.0832C18.4465 49.2258 17.9648 48.0629 17.9648 46.8503V41.7743C20.51 41.2271 24.3872 41.0543 29.0924 42.9335L32.0085 40.1543L33.9956 45.1943C33.9956 45.1943 34.5284 43.3403 36.2492 43.6031C37.97 43.8659 40.7564 44.7983 41.948 44.0027C42.2691 43.8175 42.6463 43.7548 43.01 43.8263Z" fill="#00C650"/>
<path d="M37.4414 34.1953C38.4176 34.1953 39.2091 33.404 39.2091 32.4278C39.2091 31.4516 38.4176 30.6602 37.4414 30.6602C36.4652 30.6602 35.6738 31.4516 35.6738 32.4278C35.6738 33.404 36.4652 34.1953 37.4414 34.1953Z" fill="#00C650"/>
</svg>
