<svg width="178" height="28" viewBox="0 0 178 28" fill="none" xmlns="http://www.w3.org/2000/svg">
<path d="M162.819 4.96615C162.819 4.86457 162.901 4.78223 163.003 4.78223H165.681C165.782 4.78223 165.865 4.86457 165.865 4.96615V10.1063C165.865 10.2894 166.118 10.3702 166.238 10.2321C166.664 9.74361 167.21 9.32582 167.878 8.97869C168.778 8.51961 169.74 8.29007 170.764 8.29007C171.789 8.29007 172.716 8.51078 173.545 8.95221C174.393 9.37597 175.055 9.98514 175.532 10.7797C176.009 11.5566 176.247 12.4571 176.247 13.4812V22.991C176.247 23.0926 176.165 23.1749 176.063 23.1749H173.385C173.283 23.1749 173.201 23.0926 173.201 22.991V14.2228C173.201 13.5872 173.069 13.0221 172.804 12.5277C172.557 12.0334 172.195 11.6537 171.718 11.3889C171.241 11.124 170.694 10.9916 170.076 10.9916C169.246 10.9916 168.513 11.2035 167.878 11.6272C167.242 12.051 166.747 12.6867 166.394 13.5342C166.041 14.3817 165.865 15.4058 165.865 16.6065V22.991C165.865 23.0926 165.782 23.1749 165.681 23.1749H163.003C162.901 23.1749 162.819 23.0926 162.819 22.991V4.96615Z" fill="white"/>
<path d="M154.318 23.3868C152.923 23.3868 151.67 23.069 150.557 22.4333C149.445 21.78 148.571 20.8795 147.935 19.7318C147.3 18.5841 146.982 17.2863 146.982 15.8384C146.982 14.3729 147.3 13.0751 147.935 11.945C148.571 10.7973 149.445 9.90566 150.557 9.27C151.67 8.61669 152.923 8.29004 154.318 8.29004C155.554 8.29004 156.649 8.51075 157.603 8.95218C158.556 9.37595 159.333 9.99394 159.933 10.8062C160.495 11.5502 160.856 12.4258 161.016 13.433C161.033 13.5426 160.947 13.6401 160.836 13.6401H158.122C158.035 13.6401 157.961 13.5796 157.939 13.4959C157.745 12.7492 157.333 12.1351 156.702 11.6537C156.049 11.1416 155.254 10.8856 154.318 10.8856C153.524 10.8856 152.8 11.0975 152.146 11.5213C151.493 11.945 150.981 12.5277 150.61 13.2693C150.24 14.0109 150.054 14.8673 150.054 15.8384C150.054 16.8095 150.24 17.6659 150.61 18.4075C150.981 19.1491 151.493 19.7318 152.146 20.1555C152.8 20.5793 153.524 20.7912 154.318 20.7912C155.325 20.7912 156.172 20.5352 156.861 20.0231C157.505 19.5276 157.902 18.9085 158.052 18.1659C158.07 18.0768 158.146 18.0102 158.237 18.0102H160.971C161.081 18.0102 161.167 18.1067 161.15 18.2158C161.005 19.1576 160.652 20.0072 160.092 20.7647C159.509 21.5769 158.715 22.2214 157.708 22.6982C156.72 23.1572 155.59 23.3868 154.318 23.3868Z" fill="white"/>
<path d="M131.804 8.68488C131.804 8.5833 131.887 8.50095 131.988 8.50095H134.666C134.768 8.50095 134.85 8.58329 134.85 8.68487V10.1053C134.85 10.2884 135.103 10.3692 135.224 10.2311C135.649 9.74261 136.195 9.32481 136.863 8.97769C137.763 8.5186 138.726 8.28906 139.75 8.28906C140.774 8.28906 141.701 8.50978 142.531 8.9512C143.378 9.37497 144.04 9.98414 144.517 10.7787C144.994 11.5556 145.232 12.4561 145.232 13.4802V22.99C145.232 23.0916 145.15 23.1739 145.048 23.1739H142.37C142.269 23.1739 142.186 23.0916 142.186 22.99V14.2218C142.186 13.5862 142.054 13.0211 141.789 12.5267C141.542 12.0323 141.18 11.6527 140.703 11.3879C140.227 11.123 139.679 10.9906 139.061 10.9906C138.231 10.9906 137.499 11.2025 136.863 11.6262C136.227 12.05 135.733 12.6857 135.38 13.5332C135.027 14.3807 134.85 15.396 134.85 16.579V22.99C134.85 23.0916 134.768 23.1739 134.666 23.1739H131.988C131.887 23.1739 131.804 23.0916 131.804 22.99V8.68488Z" fill="white"/>
<path d="M123.019 23.3868C121.554 23.3868 120.265 23.069 119.152 22.4333C118.057 21.78 117.21 20.8883 116.61 19.7583C116.009 18.6106 115.709 17.3039 115.709 15.8384C115.709 14.3905 116.018 13.0927 116.636 11.945C117.254 10.7973 118.11 9.90566 119.205 9.27C120.318 8.61669 121.562 8.29004 122.94 8.29004C124.458 8.29004 125.774 8.64318 126.886 9.34946C127.998 10.0557 128.811 11.0357 129.323 12.2894C129.833 13.4811 130.008 14.796 129.845 16.2341C129.835 16.3259 129.757 16.3946 129.664 16.3946H117.615C117.513 16.3946 117.431 16.3123 117.431 16.2107V14.2743C117.431 14.1727 117.513 14.0904 117.615 14.0904H126.512C126.615 14.0904 126.699 14.005 126.691 13.9018C126.65 13.308 126.485 12.7794 126.197 12.3158C125.879 11.8038 125.438 11.4153 124.873 11.1505C124.308 10.868 123.664 10.7267 122.94 10.7267C122.057 10.7267 121.297 10.9209 120.662 11.3094C120.026 11.6978 119.541 12.2717 119.205 13.0309C118.87 13.7902 118.702 14.7084 118.702 15.7854C118.702 16.8272 118.878 17.7277 119.232 18.487C119.602 19.2462 120.114 19.8289 120.768 20.235C121.421 20.6235 122.172 20.8177 123.019 20.8177C123.99 20.8177 124.794 20.6058 125.429 20.182C126.025 19.785 126.419 19.2406 126.611 18.549C126.634 18.4666 126.708 18.4075 126.794 18.4075H129.544C129.661 18.4075 129.749 18.5166 129.719 18.6305C129.496 19.495 129.108 20.277 128.555 20.9766C127.972 21.7182 127.204 22.3097 126.25 22.7511C125.314 23.1749 124.237 23.3868 123.019 23.3868Z" fill="white"/>
<path d="M107.151 23.3868C106.144 23.3868 105.191 23.1749 104.29 22.7511C103.622 22.4305 103.076 22.034 102.65 21.5616C102.528 21.4264 102.278 21.508 102.278 21.69V22.991C102.278 23.0926 102.195 23.1749 102.094 23.1749H99.4157C99.3141 23.1749 99.2318 23.0926 99.2318 22.991V4.96615C99.2318 4.86457 99.3141 4.78223 99.4157 4.78223H102.094C102.195 4.78223 102.278 4.86457 102.278 4.96615V10.0003C102.278 10.1834 102.532 10.2646 102.653 10.1274C103.078 9.64629 103.624 9.24572 104.29 8.92571C105.191 8.50194 106.153 8.29005 107.177 8.29005C108.555 8.29005 109.773 8.59905 110.832 9.21705C111.909 9.83504 112.739 10.7179 113.322 11.8656C113.922 12.9956 114.223 14.3199 114.223 15.8384C114.223 17.3393 113.922 18.6635 113.322 19.8113C112.739 20.959 111.909 21.8418 110.832 22.4598C109.755 23.0778 108.528 23.3868 107.151 23.3868ZM106.727 20.7647C107.575 20.7647 108.334 20.5617 109.005 20.1556C109.694 19.7318 110.223 19.1491 110.594 18.4075C110.965 17.6659 111.15 16.8096 111.15 15.8384C111.15 14.8673 110.965 14.0109 110.594 13.2693C110.223 12.5277 109.694 11.9539 109.005 11.5478C108.334 11.124 107.575 10.9121 106.727 10.9121C105.862 10.9121 105.085 11.124 104.396 11.5478C103.725 11.9539 103.205 12.5277 102.834 13.2693C102.463 14.0109 102.278 14.8673 102.278 15.8384C102.278 16.8096 102.463 17.6659 102.834 18.4075C103.205 19.1491 103.725 19.7318 104.396 20.1556C105.085 20.5617 105.862 20.7647 106.727 20.7647Z" fill="white"/>
<path d="M95.1425 23.3604C94.2597 23.3604 93.4739 23.1838 92.7853 22.8306C92.0967 22.4775 91.5493 21.9566 91.1432 21.268C90.7547 20.5617 90.5605 19.7142 90.5605 18.7254V4.96615C90.5605 4.86457 90.6429 4.78223 90.7444 4.78223H93.3959C93.4975 4.78223 93.5799 4.86457 93.5799 4.96615V18.4605C93.5799 19.1845 93.7564 19.7495 94.1096 20.1556C94.4627 20.5441 94.9394 20.7383 95.5398 20.7383C95.787 20.7383 96.043 20.7118 96.3079 20.6588C96.4781 20.6248 96.6409 20.5835 96.7966 20.5348C96.9198 20.4964 97.0495 20.5857 97.0495 20.7147V22.8859C97.0495 22.9639 97.0004 23.0337 96.9262 23.0579C96.6649 23.1432 96.397 23.2087 96.1225 23.2544C95.8223 23.325 95.4956 23.3604 95.1425 23.3604ZM88.3887 8.68591C88.3887 8.58433 88.471 8.50198 88.5726 8.50198H96.6536C96.7552 8.50198 96.8376 8.58433 96.8376 8.68591V10.7812C96.8376 10.8828 96.7552 10.9651 96.6536 10.9651H88.5726C88.471 10.9651 88.3887 10.8828 88.3887 10.7812V8.68591Z" fill="white"/>
<path d="M81.737 23.3868C80.5893 23.3868 79.5741 23.1837 78.6912 22.7776C77.8084 22.3538 77.1021 21.7712 76.5724 21.0296C76.094 20.3203 75.816 19.5108 75.7383 18.6011C75.7293 18.496 75.8134 18.4075 75.9189 18.4075H78.5191C78.616 18.4075 78.6957 18.4828 78.7066 18.579C78.7881 19.2915 79.0742 19.8523 79.5652 20.2615C80.1126 20.6853 80.8365 20.8971 81.737 20.8971C82.5316 20.8971 83.1584 20.7206 83.6175 20.3674C84.0766 20.0143 84.3061 19.5287 84.3061 18.9107C84.3061 18.487 84.1649 18.1426 83.8824 17.8778C83.5998 17.5953 83.2379 17.3834 82.7965 17.2421C82.3727 17.0832 81.7812 16.8978 81.0219 16.6859C79.9802 16.4211 79.1326 16.1562 78.4793 15.8914C77.8437 15.6265 77.2875 15.2204 76.8107 14.673C76.3517 14.108 76.1221 13.3488 76.1221 12.3953C76.1221 11.6184 76.334 10.9209 76.7578 10.3029C77.1815 9.66729 77.7819 9.17289 78.5588 8.81975C79.3533 8.46661 80.245 8.29004 81.2338 8.29004C82.3462 8.29004 83.3173 8.46661 84.1472 8.81975C84.9771 9.17289 85.6304 9.69377 86.1071 10.3824C86.5487 11.0038 86.8236 11.7313 86.932 12.5649C86.946 12.6725 86.8608 12.7661 86.7522 12.7661H84.1713C84.0811 12.7661 84.0048 12.7004 83.9858 12.6122C83.8611 12.0333 83.5794 11.5813 83.1408 11.2564C82.664 10.8856 82.0372 10.7002 81.2603 10.7002C80.5893 10.7002 80.0508 10.8415 79.6447 11.124C79.2386 11.4065 79.0355 11.795 79.0355 12.2894C79.0355 12.6601 79.1679 12.9603 79.4328 13.1899C79.6977 13.4194 80.0243 13.6048 80.4128 13.7461C80.8012 13.8697 81.3574 14.0286 82.0813 14.2228C83.1761 14.47 84.0589 14.7348 84.7299 15.0174C85.4185 15.2822 86.01 15.7236 86.5044 16.3416C87.0165 16.942 87.2725 17.7719 87.2725 18.8313C87.2725 19.7494 87.0341 20.5528 86.5574 21.2415C86.0983 21.9124 85.445 22.4421 84.5975 22.8306C83.7676 23.2014 82.8141 23.3868 81.737 23.3868Z" fill="white"/>
<path d="M65.3949 8.68585C65.3949 8.58427 65.4772 8.50192 65.5788 8.50192H68.2568C68.3584 8.50192 68.4407 8.58427 68.4407 8.68585V10.0535C68.4407 10.2476 68.736 10.3276 68.8547 10.174C69.2042 9.72201 69.6577 9.33238 70.2153 9.00515C71.0275 8.52841 71.8838 8.29004 72.7843 8.29004C73.4184 8.29004 73.9626 8.37236 74.417 8.53702C74.4873 8.56249 74.5324 8.63027 74.5324 8.70505V11.2348C74.5324 11.3617 74.4068 11.4506 74.2853 11.4142C74.0633 11.3475 73.8367 11.295 73.6054 11.2564C73.2876 11.1858 72.9433 11.1505 72.5725 11.1505C71.7779 11.1505 71.0716 11.3888 70.4536 11.8656C69.8356 12.3423 69.3412 13.0751 68.9704 14.0639C68.6173 15.0527 68.4407 16.2622 68.4407 17.6924V22.991C68.4407 23.0926 68.3584 23.1749 68.2568 23.1749H65.5788C65.4772 23.1749 65.3949 23.0925 65.3949 22.991V8.68585Z" fill="white"/>
<path d="M59.9853 9.79087C59.9853 9.68929 60.0676 9.60695 60.1692 9.60695H62.6939C62.7955 9.60695 62.8778 9.68929 62.8778 9.79087V22.991C62.8778 23.0926 62.7955 23.1749 62.6939 23.1749H60.1692C60.0676 23.1749 59.9853 23.0926 59.9853 22.991V9.79087ZM59.9601 4.96615C59.9601 4.86457 60.0425 4.78223 60.144 4.78223H62.719C62.8206 4.78223 62.903 4.86457 62.903 4.96615V7.41476C62.903 7.51634 62.8206 7.59869 62.719 7.59869H60.144C60.0425 7.59869 59.9601 7.51634 59.9601 7.41476V4.96615Z" fill="white"/>
<path d="M45.6287 4.81869C45.6287 4.71711 45.711 4.63477 45.8126 4.63477H57.7605C57.8621 4.63477 57.9444 4.71711 57.9444 4.81869V7.12588C57.9444 7.22746 57.8621 7.3098 57.7605 7.3098H48.9379C48.8363 7.3098 48.754 7.39215 48.754 7.49373V11.9727C48.754 12.0743 48.8363 12.1567 48.9379 12.1567H56.039C56.1405 12.1567 56.2229 12.239 56.2229 12.3406V14.6478C56.2229 14.7493 56.1405 14.8317 56.039 14.8317H48.9379C48.8363 14.8317 48.754 14.914 48.754 15.0156V22.9907C48.754 23.0923 48.6716 23.1746 48.57 23.1746H45.8126C45.711 23.1746 45.6287 23.0923 45.6287 22.9907V4.81869Z" fill="white"/>
<path d="M18.5711 0H39.2812C39.582 0 39.7327 0.371466 39.52 0.588718L33.9615 6.26597C33.5657 6.67018 33.0289 6.89727 32.4692 6.89727H14.3505C13.8843 6.89727 13.5063 6.51127 13.5063 6.03511V5.17295C13.5063 2.31601 15.7739 0 18.5711 0Z" fill="#30C7C2"/>
<path d="M14.0826 27.0002L29.8123 10.9344C30.025 10.7172 29.8744 10.3457 29.5736 10.3457H1.43043C1.07414 10.3457 0.960749 10.8363 1.27943 10.999L12.1063 16.5281C12.9642 16.9662 13.5062 17.8618 13.5062 18.8415V26.7563C13.5062 27.0635 13.8699 27.2174 14.0826 27.0002Z" fill="#30C7C2"/>
</svg>
