<svg width="19" height="19" viewBox="0 0 19 19" fill="none" xmlns="http://www.w3.org/2000/svg">
<g id="vuesax/bold/message-question">
<g id="message-question">
<path id="Vector" d="M6.56224 14.0556V13.6694H6.17607C5.14167 13.6694 4.30968 13.3263 3.73726 12.7539C3.16484 12.1815 2.82172 11.3495 2.82172 10.3151V5.82646C2.82172 4.79206 3.16484 3.96007 3.73726 3.38765C4.30968 2.81523 5.14167 2.47211 6.17607 2.47211H13.6571C14.6915 2.47211 15.5235 2.81523 16.0959 3.38765C16.6684 3.96007 17.0115 4.79206 17.0115 5.82646V10.3151C17.0115 11.3495 16.6684 12.1815 16.0959 12.7539C15.5235 13.3263 14.6915 13.6694 13.6571 13.6694H10.6647H10.548L10.4508 13.7341L7.12176 15.9485L7.12174 15.9484L7.11809 15.9509C6.88662 16.1088 6.56224 15.9445 6.56224 15.6491V14.0556ZM11.0734 8.40705L11.0734 8.40706L11.0758 8.40546L11.0832 8.40045C11.3249 8.23684 12.1057 7.70829 12.1057 6.64938C12.1057 5.44112 11.1249 4.46027 9.91659 4.46027C8.70834 4.46027 7.72749 5.44112 7.72749 6.64938C7.72749 7.16938 8.15474 7.59663 8.67474 7.59663C9.19474 7.59663 9.62199 7.16938 9.62199 6.64938C9.62199 6.4886 9.75582 6.35477 9.91659 6.35477C10.0774 6.35477 10.2112 6.4886 10.2112 6.64938C10.2112 6.65885 10.2106 6.6649 10.2102 6.66835C10.2097 6.67166 10.2093 6.67297 10.2093 6.673L10.2093 6.67309L10.209 6.6737C10.2086 6.67443 10.2073 6.67693 10.2041 6.68138C10.1878 6.70415 10.1423 6.75185 10.0146 6.83811L10.0146 6.8381L10.012 6.83986C10.007 6.84331 10.0017 6.84692 9.99622 6.8507C9.74185 7.02503 8.96934 7.55446 8.96934 8.61689V8.77399C8.96934 9.22818 9.29528 9.6116 9.72428 9.70139C9.28855 9.79057 8.96934 10.177 8.96934 10.6293C8.96934 11.1459 9.38576 11.5765 9.91659 11.5765C10.4474 11.5765 10.8638 11.1459 10.8638 10.6293C10.8638 10.177 10.5446 9.79057 10.1089 9.70139C10.5379 9.6116 10.8638 9.22818 10.8638 8.77399V8.61689C10.8638 8.59224 10.8665 8.58276 10.8669 8.58116C10.867 8.58085 10.8674 8.57833 10.873 8.5705C10.8899 8.54695 10.937 8.49799 11.0734 8.40705Z" stroke="black" stroke-width="0.772349"/>
</g>
</g>
</svg>
