<svg width="60" height="16" viewBox="0 0 60 16" fill="none" xmlns="http://www.w3.org/2000/svg">
<path d="M3.3335 6.66683C3.3335 7.90451 3.82516 9.09149 4.70033 9.96666C5.5755 10.8418 6.76249 11.3335 8.00016 11.3335M8.00016 11.3335C9.23784 11.3335 10.4248 10.8418 11.3 9.96666C12.1752 9.09149 12.6668 7.90451 12.6668 6.66683M8.00016 11.3335V14.0002M5.3335 14.0002H10.6668M6.00016 3.3335C6.00016 2.80306 6.21088 2.29436 6.58595 1.91928C6.96102 1.54421 7.46973 1.3335 8.00016 1.3335C8.5306 1.3335 9.0393 1.54421 9.41438 1.91928C9.78945 2.29436 10.0002 2.80306 10.0002 3.3335V6.66683C10.0002 7.19726 9.78945 7.70597 9.41438 8.08104C9.0393 8.45612 8.5306 8.66683 8.00016 8.66683C7.46973 8.66683 6.96102 8.45612 6.58595 8.08104C6.21088 7.70597 6.00016 7.19726 6.00016 6.66683V3.3335Z" stroke="#303947" stroke-width="1.25" stroke-linecap="round" stroke-linejoin="round"/>
<g clip-path="url(#clip0_546_15683)">
<rect x="20" y="4" width="40" height="8" rx="4" fill="#E0E2E6"/>
</g>
<defs>
<clipPath id="clip0_546_15683">
<rect x="20" y="4" width="40" height="8" rx="4" fill="white"/>
</clipPath>
</defs>
</svg>
