<svg width="16" height="16" viewBox="0 0 16 16" fill="none" xmlns="http://www.w3.org/2000/svg">
<path d="M3.33331 6.66665C3.33331 7.90432 3.82498 9.09131 4.70015 9.96648C5.57532 10.8416 6.7623 11.3333 7.99998 11.3333M7.99998 11.3333C9.23766 11.3333 10.4246 10.8416 11.2998 9.96648C12.175 9.09131 12.6666 7.90432 12.6666 6.66665M7.99998 11.3333V14M5.33331 14H10.6666M5.99998 3.33331C5.99998 2.80288 6.21069 2.29417 6.58577 1.9191C6.96084 1.54403 7.46955 1.33331 7.99998 1.33331C8.53041 1.33331 9.03912 1.54403 9.41419 1.9191C9.78927 2.29417 9.99998 2.80288 9.99998 3.33331V6.66665C9.99998 7.19708 9.78927 7.70579 9.41419 8.08086C9.03912 8.45593 8.53041 8.66665 7.99998 8.66665C7.46955 8.66665 6.96084 8.45593 6.58577 8.08086C6.21069 7.70579 5.99998 7.19708 5.99998 6.66665V3.33331Z" stroke="#303947" stroke-width="1.25" stroke-linecap="round" stroke-linejoin="round"/>
</svg>
