<svg width="17" height="17" viewBox="0 0 17 17" fill="none" xmlns="http://www.w3.org/2000/svg">
<path d="M6.41566 5.64417H10.4112M6.41566 8.30788H10.4112M6.41566 10.9716H9.07936M3.75195 4.31232C3.75195 3.95909 3.89227 3.62033 4.14204 3.37056C4.39181 3.12079 4.73058 2.98047 5.08381 2.98047H11.7431C12.0963 2.98047 12.4351 3.12079 12.6848 3.37056C12.9346 3.62033 13.0749 3.95909 13.0749 4.31232V13.6353C13.0749 13.9885 12.9346 14.3273 12.6848 14.577C12.4351 14.8268 12.0963 14.9671 11.7431 14.9671H5.08381C4.73058 14.9671 4.39181 14.8268 4.14204 14.577C3.89227 14.3273 3.75195 13.9885 3.75195 13.6353V4.31232Z" stroke="#B3B7BE" stroke-width="1.24861" stroke-linecap="round" stroke-linejoin="round"/>
</svg>
