<svg width="36" height="36" viewBox="0 0 36 36" fill="none" xmlns="http://www.w3.org/2000/svg">
<path d="M15.5 22.1667V23C15.5 23.663 15.7634 24.2989 16.2322 24.7678C16.7011 25.2366 17.3369 25.5 18 25.5C18.663 25.5 19.2989 25.2366 19.7677 24.7678C20.2366 24.2989 20.5 23.663 20.5 23V22.1667M16.3333 12.1667C16.3333 11.7246 16.5089 11.3007 16.8215 10.9882C17.134 10.6756 17.558 10.5 18 10.5C18.442 10.5 18.8659 10.6756 19.1785 10.9882C19.4911 11.3007 19.6666 11.7246 19.6666 12.1667C20.6237 12.6192 21.4395 13.3236 22.0267 14.2044C22.6139 15.0852 22.9503 16.1092 23 17.1667V19.6667C23.0627 20.1848 23.2462 20.6809 23.5357 21.1151C23.8251 21.5493 24.2125 21.9095 24.6666 22.1667H11.3333C11.7874 21.9095 12.1748 21.5493 12.4643 21.1151C12.7538 20.6809 12.9373 20.1848 13 19.6667V17.1667C13.0496 16.1092 13.3861 15.0852 13.9733 14.2044C14.5605 13.3236 15.3763 12.6192 16.3333 12.1667Z" stroke="#F9FAFB" stroke-width="1.5" stroke-linecap="round" stroke-linejoin="round"/>
</svg>
