<svg width="74" height="88" viewBox="0 0 74 88" fill="none" xmlns="http://www.w3.org/2000/svg">
<g opacity="0.3">
<path opacity="0.3" d="M51.6923 18.478C49.7038 18.4761 47.7972 17.6852 46.3911 16.2791C44.985 14.873 44.1942 12.9664 44.1923 10.9779V0.564453H10.6785C8.08259 0.564453 5.59302 1.5957 3.75744 3.43129C1.92185 5.26687 0.890625 7.75639 0.890625 10.3523V69.356C0.89448 71.9494 1.9274 74.4352 3.76256 76.2677C5.59773 78.1001 8.08511 79.1294 10.6785 79.1294H50.9103C53.5037 79.1294 55.9911 78.1001 57.8262 76.2677C59.6614 74.4352 60.6943 71.9494 60.6982 69.356V18.478H51.6923Z" fill="#FF3E4C"/>
</g>
<path d="M60.6973 18.478H51.6914C49.7029 18.4761 47.7964 17.6852 46.3902 16.2791C44.9841 14.873 44.1933 12.9664 44.1914 10.9779V0.564453L60.6973 18.478Z" fill="#FF3E4C"/>
<path d="M48.3936 55.4294H10.8425C10.4807 55.4294 10.1338 55.2857 9.87801 55.0299C9.62221 54.7741 9.47852 54.4272 9.47852 54.0654C9.47948 53.7043 9.6236 53.3583 9.87929 53.1033C10.135 52.8483 10.4814 52.7051 10.8425 52.7051H48.3936C48.7544 52.7051 49.1004 52.8483 49.3555 53.1034C49.6106 53.3585 49.7539 53.7046 49.7539 54.0654C49.7544 54.2444 49.7196 54.4217 49.6514 54.5871C49.5833 54.7526 49.4832 54.9029 49.3568 55.0296C49.2304 55.1563 49.0803 55.2569 48.915 55.3255C48.7498 55.3941 48.5726 55.4294 48.3936 55.4294Z" fill="#FF3E4C"/>
<path d="M48.3936 40.0661H10.8425C10.4814 40.0661 10.135 39.9228 9.87929 39.6678C9.6236 39.4128 9.47948 39.0669 9.47852 38.7058C9.47852 38.344 9.62221 37.997 9.87801 37.7412C10.1338 37.4854 10.4807 37.3418 10.8425 37.3418H48.3936C48.5726 37.3418 48.7498 37.3771 48.915 37.4457C49.0803 37.5143 49.2304 37.6148 49.3568 37.7415C49.4832 37.8682 49.5833 38.0186 49.6514 38.1841C49.7196 38.3495 49.7544 38.5268 49.7539 38.7058C49.7539 39.0666 49.6106 39.4125 49.3555 39.6677C49.1004 39.9228 48.7544 40.0661 48.3936 40.0661Z" fill="#FF3E4C"/>
<path d="M48.3936 47.7477H10.8425C10.4807 47.7477 10.1338 47.604 9.87801 47.3482C9.62221 47.0924 9.47852 46.7455 9.47852 46.3838C9.47948 46.0227 9.6236 45.6766 9.87929 45.4216C10.135 45.1666 10.4814 45.0234 10.8425 45.0234H48.3936C48.7544 45.0234 49.1004 45.1668 49.3555 45.4219C49.6106 45.677 49.7539 46.023 49.7539 46.3838C49.7544 46.5627 49.7196 46.74 49.6514 46.9055C49.5833 47.0709 49.4832 47.2213 49.3568 47.3481C49.2304 47.4748 49.0803 47.5753 48.915 47.6438C48.7498 47.7124 48.5726 47.7477 48.3936 47.7477Z" fill="#FF3E4C"/>
<path d="M33.5827 32.3825H10.8425C10.4814 32.3825 10.135 32.2393 9.87929 31.9843C9.6236 31.7293 9.47948 31.3833 9.47852 31.0222C9.47852 30.6604 9.62221 30.3135 9.87801 30.0577C10.1338 29.8019 10.4807 29.6582 10.8425 29.6582H33.5827C33.9438 29.6592 34.2898 29.8033 34.5448 30.059C34.7998 30.3146 34.943 30.6611 34.943 31.0222C34.942 31.3827 34.7984 31.7281 34.5435 31.983C34.2886 32.2379 33.9432 32.3816 33.5827 32.3825Z" fill="#FF3E4C"/>
<path d="M33.5827 24.7009H10.8425C10.4814 24.7009 10.135 24.5576 9.87929 24.3026C9.6236 24.0476 9.47948 23.7017 9.47852 23.3405C9.47852 22.9788 9.62221 22.6318 9.87801 22.376C10.1338 22.1202 10.4807 21.9766 10.8425 21.9766H33.5827C33.9438 21.9775 34.2898 22.1216 34.5448 22.3773C34.7998 22.633 34.943 22.9794 34.943 23.3405C34.942 23.701 34.7984 24.0465 34.5435 24.3014C34.2886 24.5563 33.9432 24.6999 33.5827 24.7009Z" fill="#FF3E4C"/>
<path d="M67.7945 62.6191H22.3141C19.088 62.6191 16.4727 65.2344 16.4727 68.4606V82.0203C16.4727 85.2465 19.088 87.8618 22.3141 87.8618H67.7945C71.0206 87.8618 73.6359 85.2465 73.6359 82.0203V68.4606C73.6359 65.2344 71.0206 62.6191 67.7945 62.6191Z" fill="#FF3E4C"/>
<path d="M31.3934 78.1758V80.8201H28.6582V78.1758H31.3934Z" fill="white"/>
<path d="M35.4158 76.9828V80.82H32.7715V69.8828H37.0562C38.3547 69.8828 39.3477 70.2065 40.0278 70.8503C40.372 71.1885 40.6407 71.5957 40.8162 72.0452C40.9918 72.4947 41.0702 72.9762 41.0463 73.4582C41.0595 74.0941 40.9025 74.722 40.5916 75.2768C40.2741 75.8193 39.8034 76.2559 39.2386 76.5317C38.5573 76.8537 37.8094 77.0095 37.0562 76.9864L35.4158 76.9828ZM38.3547 73.4582C38.3547 72.4882 37.8237 72.0033 36.7616 72.0033H35.4158V74.8513H36.7616C37.8237 74.861 38.3547 74.3966 38.3547 73.4582Z" fill="white"/>
<path d="M51.4954 78.1831C51.04 79.0101 50.352 79.6854 49.5167 80.1254C48.5768 80.6066 47.5316 80.8454 46.476 80.8201H42.3477V69.8829H46.476C47.5324 69.8563 48.5791 70.0899 49.524 70.563C50.357 70.9935 51.0432 71.662 51.4954 72.4835C51.9686 73.3556 52.2068 74.3359 52.1865 75.3279C52.2062 76.3233 51.9681 77.3068 51.4954 78.1831ZM48.651 77.6338C48.9467 77.3304 49.1758 76.9685 49.3236 76.5714C49.4714 76.1743 49.5347 75.7508 49.5094 75.3279C49.5349 74.9055 49.4716 74.4823 49.3238 74.0858C49.176 73.6893 48.9468 73.3281 48.651 73.0255C47.9895 72.445 47.1253 72.1495 46.2468 72.2034H44.992V78.4522H46.2468C47.1246 78.5056 47.9881 78.2116 48.651 77.6338Z" fill="white"/>
<path d="M60.8182 69.8828V71.9888H56.3335V74.3857H59.7962V76.3971H56.3335V80.82H53.6855V69.8828H60.8182Z" fill="white"/>
<path d="M47.7279 21.9766H41.2972C40.1762 21.9766 39.2676 22.8852 39.2676 24.0062V30.4368C39.2676 31.5578 40.1762 32.4664 41.2972 32.4664H47.7279C48.8488 32.4664 49.7574 31.5578 49.7574 30.4368V24.0062C49.7574 22.8852 48.8488 21.9766 47.7279 21.9766Z" fill="#FF3E4C"/>
</svg>
