<svg width="224" height="188" viewBox="0 0 224 188" fill="none" xmlns="http://www.w3.org/2000/svg">
<path d="M13.1987 120.365C6.80464 101.436 5.30077 91.2135 7.04651 89.7517C8.09816 88.8263 9.85439 88.1427 9.99111 86.2708C10.1278 84.3989 7.98248 78.11 15.4702 76.6377C15.4702 76.6377 18.0047 61.7989 20.4129 54.8475C20.4129 54.8475 33.7899 108.092 34.7259 112.089C35.6619 116.085 17.542 133.279 13.1987 120.365Z" fill="#FEBD9D"/>
<path d="M15.4701 76.6377C14.9807 79.0202 14.6295 81.4289 14.4185 83.852" stroke="#EF8A66" stroke-width="1.09372" stroke-linecap="round" stroke-linejoin="round"/>
<path d="M6.58387 95.3465C6.19476 92.1915 6.38407 90.3196 7.05712 89.7517C8.10877 88.8263 9.86501 88.1427 10.0017 86.2708C10.1384 84.3988 7.99307 78.11 15.4808 76.6377C15.4808 76.6377 18.0153 61.7989 20.4236 54.8475" stroke="#EF8A66" stroke-width="1.09372" stroke-linecap="round" stroke-linejoin="round"/>
<path d="M78.2372 22.9998L19.6329 39.5279C16.2118 40.4927 14.2206 44.0482 15.1855 47.4693L26.5611 87.8041C27.5259 91.2252 31.0814 93.2164 34.5025 92.2515L93.1068 75.7234C96.5279 74.7585 98.5191 71.203 97.5542 67.7819L86.1787 27.4472C85.2138 24.0261 81.6583 22.0349 78.2372 22.9998Z" fill="#F9F9F9" stroke="#DDDDDD" stroke-width="1.4583" stroke-linecap="round" stroke-linejoin="round"/>
<path d="M75.342 28.8895L25.1993 43.0311C22.9354 43.6697 21.6177 46.0225 22.2562 48.2865L32.1645 83.4187C32.803 85.6827 35.1559 87.0004 37.4199 86.3619L87.5625 72.2202C89.8265 71.5817 91.1441 69.2288 90.5056 66.9648L80.5973 31.8326C79.9588 29.5686 77.6059 28.251 75.342 28.8895Z" stroke="#EDEDED" stroke-width="1.4583" stroke-linecap="round" stroke-linejoin="round"/>
<path d="M22.8002 84.8931C18.3517 92.8541 21.8747 102.393 27.2486 104.99C32.6225 107.588 34.8415 91.0978 35.483 86.9333C36.1246 82.7688 36.1351 76.4694 36.5978 73.3145C37.0605 70.1595 34.0949 67.6671 32.1493 72.4837C30.2038 77.3002 29.2783 80.2448 29.2783 80.2448L22.8002 84.8931Z" fill="#FEBD9D"/>
<path d="M35.4832 86.9333C36.1352 82.7267 36.1352 76.4694 36.5979 73.3145C37.0606 70.1595 34.095 67.6671 32.1494 72.4837C30.2039 77.3002 29.2784 80.2448 29.2784 80.2448L22.8003 84.8931" stroke="#EF8A66" stroke-width="1.09372" stroke-linecap="round" stroke-linejoin="round"/>
<mask id="mask0_546_14139" style="mask-type:luminance" maskUnits="userSpaceOnUse" x="0" y="28" width="224" height="174">
<path d="M223.854 44.5201V201.51H8.79361e-05V44.5201C-0.00685843 42.4397 0.397798 40.3785 1.19073 38.4551C1.98367 36.5317 3.14922 34.7841 4.6203 33.3131C6.09139 31.842 7.83894 30.6764 9.76233 29.8835C11.6857 29.0905 13.747 28.6859 15.8274 28.6928H208.027C210.107 28.6859 212.168 29.0905 214.092 29.8835C216.015 30.6764 217.763 31.842 219.234 33.3131C220.705 34.7841 221.87 36.5317 222.663 38.4551C223.456 40.3785 223.861 42.4397 223.854 44.5201Z" fill="white"/>
</mask>
<g mask="url(#mask0_546_14139)">
<path d="M166.434 53.922L162.859 99.1429L123.695 102.834C127.05 92.1806 129.751 81.3319 131.782 70.3487C132.666 65.6058 133.465 60.5684 134.075 55.4258L148.504 54.7633L166.434 53.922Z" fill="#FEBD9D"/>
<path d="M151.71 59.0225C150.112 65.2272 141.352 69.6231 131.845 70.3277C132.728 65.5848 133.527 60.5474 134.137 55.4049L148.566 54.7423C150.827 55.7414 152.152 57.1296 151.71 59.0225Z" fill="#F4A789"/>
<path d="M227.261 102.813V208.03H219.1C219.1 208.03 214.284 188.943 193.545 148.938C193.545 148.938 193.146 150.716 192.336 153.797C191.221 158.067 189.318 164.818 186.615 172.842C182.058 186.642 176.191 199.975 169.095 212.658C154.131 219.068 138.349 223.364 122.201 225.425C121.76 225.425 121.308 225.54 120.855 225.582C104.765 227.57 86.0879 227.581 67.1372 222.701C55.3691 219.72 44.1389 214.919 33.8525 208.472C34.4204 207.547 60.007 157.457 67.9785 141.345C68.599 140.094 69.2195 138.874 69.8505 137.665C77.3382 123.352 86.3193 112.225 110.57 102.813C116.197 100.647 121.139 98.7221 125.472 97.0395C141.447 90.8453 149.408 87.785 154.287 86.3337C157.737 85.3101 161.014 84.3531 164.12 83.4627C194.008 74.8813 208.836 72.8726 221.403 92.0442C223.611 95.4892 225.568 99.088 227.261 102.813Z" fill="#FED81D"/>
<path d="M221.404 92.0442C211.055 91.4132 198.036 94.2631 190.674 110.469C177.077 140.378 150.239 152.903 130.562 133.731C115.103 118.682 88.7592 120.638 69.8506 137.665C77.3383 123.352 86.3194 112.225 110.57 102.813C116.197 100.647 121.139 98.7221 125.472 97.0395C141.447 90.8453 149.408 87.785 154.287 86.3337C157.737 85.3101 161.014 84.3531 164.12 83.4627C194.008 74.8813 208.836 72.8726 221.404 92.0442Z" fill="#FFE05C"/>
<path d="M227.261 179.594V207.989H219.1C219.1 207.989 214.284 188.901 193.545 148.896C194.734 144.28 195.649 139.831 196.385 135.888C209.783 141.756 210.929 154.176 209.467 161.19C208.111 167.721 214.999 183.727 227.261 179.594Z" fill="#FCC71F"/>
<path d="M115.691 156.121C113.588 167.121 104.428 186.409 88.075 213.962C85.562 217.958 82.7085 221.73 79.5462 225.235C75.3693 224.607 71.2274 223.764 67.1367 222.711L72.3108 208.041C75.2449 196.694 80.724 191.635 92.5235 189.364C102.998 187.334 94.2272 155.301 115.691 156.121Z" fill="#FCC71F"/>
<path d="M63.0044 242.167C63.0044 242.167 71.8698 234.048 79.5468 225.225C82.7091 221.72 85.5627 217.948 88.0757 213.951C104.429 186.409 113.578 167.121 115.692 156.111C116.351 152.703 116.333 150.092 115.639 148.276" stroke="#F7AD2B" stroke-width="1.09372" stroke-linecap="round" stroke-linejoin="round"/>
<path d="M198.468 121.49C198.468 121.49 197.91 127.537 196.364 135.929C195.649 139.873 194.713 144.343 193.525 148.938" stroke="#F7AD2B" stroke-width="1.09372" stroke-linecap="round" stroke-linejoin="round"/>
<path d="M72.3012 184.421C72.6903 209.713 43.8225 235.216 27.9952 203.919C21.3804 190.847 4.85897 129.84 6.01579 121.49C7.06744 114.055 28.8155 97.5022 37.744 100.741C37.744 100.741 41.4774 110.564 46.6094 123.099C53.1401 139.053 61.9319 159.434 68.1156 169.551C70.8169 174.043 72.2624 179.179 72.3012 184.421Z" fill="#FED81D"/>
<path d="M60.8072 155.648C57.3788 162.431 53.4457 170.245 49.5966 177.733C46.978 172.948 46.5048 165.901 52.0785 159.329C59.1666 150.989 36.9769 136.434 46.61 123.078C50.8376 133.427 56.0117 145.594 60.8072 155.648Z" fill="#FCC71F"/>
<path d="M60.9432 155.385C60.9432 155.469 60.8485 155.553 60.8065 155.648C57.3781 162.431 53.4449 170.245 49.5959 177.733L45.9888 184.81" stroke="#F7AD2B" stroke-width="1.09372" stroke-linecap="round" stroke-linejoin="round"/>
</g>
<path d="M124.18 32.2791C118.922 51.2613 114.242 61.6516 146.622 63.776C146.622 63.776 167.171 40.6397 164.374 7.05007C164.374 7.05007 146.065 -7.67302 130.206 21.0054C130.206 21.0054 124.39 23.2349 123.728 24.0237C123.065 24.8124 123.507 29.7131 124.18 32.2791Z" fill="#FEBD9D"/>
<path d="M130.205 21.0054C130.205 21.0054 124.39 23.235 123.727 24.0237C123.065 24.8124 123.506 29.7131 124.179 32.2791" stroke="#EF8A66" stroke-width="1.09372" stroke-linecap="round" stroke-linejoin="round"/>
<path d="M134.632 25.0754C135.387 25.0754 135.999 24.4632 135.999 23.7082C135.999 22.9531 135.387 22.3411 134.632 22.3411C133.877 22.3411 133.265 22.9531 133.265 23.7082C133.265 24.4632 133.877 25.0754 134.632 25.0754Z" fill="#5C1A55"/>
<path d="M135.821 12.6448C138.534 10.7624 143.298 21.7206 139.849 21.6785C138.46 21.6785 132.519 14.9374 135.821 12.6448Z" fill="#BF8228"/>
<path d="M193.546 105.337C191.948 120.943 184.313 127.159 185.795 132.427C187.278 137.696 190.927 136.55 190.927 136.55C190.927 136.55 188.025 144.963 176.888 141.608C176.888 141.608 167.15 156.479 157.958 145.815C149.65 157.162 132.14 159.486 131.604 143.922C131.604 143.922 138.366 145.615 141.815 141.23C145.265 136.844 146.022 129.535 142.278 125.686C138.534 121.837 133.097 117.988 132.75 111.563C132.403 105.137 137.146 93.8635 144.034 85.4819C144.034 85.4819 116.544 77.7313 114.515 101.257L109.025 103.36C109.025 103.36 103.167 100.531 103.304 91.0767C103.441 81.6223 112.075 74.6815 121.477 74.8497C130.878 75.018 153.562 70.9376 142.51 42.3012C142.51 42.3012 151.533 45.6034 153.888 38.3786C156.244 31.1538 148.073 27.3047 143.372 31.3431C143.372 31.3431 139.523 25.4013 150.933 12.3188C149.661 8.17527 145.254 7.06052 147.147 2.85393C148.683 -0.532377 158.316 -0.532395 165.551 0.929395C167.105 1.23793 168.634 1.65972 170.126 2.19139C174.271 3.66407 177.881 6.34094 180.495 9.87893C182.062 11.9719 183.095 14.4159 183.503 16.9986C184.542 16.5714 185.661 16.3706 186.784 16.4097C189.055 16.4938 191.832 17.7663 192.82 23.0771C194.261 30.7646 188.992 34.6452 185.459 36.4225C184.476 36.9109 183.447 37.3018 182.388 37.5899C183.161 39.9971 183.517 42.5189 183.44 45.046C183.395 46.6951 183.173 48.3346 182.777 49.9362C181.273 55.9411 178.013 66.3945 179.454 73.6614C179.612 74.5416 179.866 75.4021 180.211 76.2274C183.166 83.4417 195.145 89.7305 193.546 105.337Z" fill="#BF8228"/>
<path d="M185.417 36.4752C184.434 36.9635 183.406 37.3545 182.346 37.6425C182.346 37.6425 177.414 38.8414 175.458 30.2178C173.891 23.3085 177.772 18.6497 183.503 17.0512C184.543 16.624 185.661 16.4232 186.784 16.4623C176.415 25.496 181.452 32.8365 185.417 36.4752Z" fill="#B57724"/>
<path d="M193.546 105.337C191.948 120.943 184.313 127.159 185.795 132.427C187.278 137.696 190.927 136.55 190.927 136.55C190.927 136.55 188.025 144.963 176.888 141.608C176.888 141.608 167.15 156.479 157.958 145.815C149.65 157.162 132.14 159.486 131.604 143.922C131.604 143.922 138.366 145.615 141.815 141.23C145.265 136.844 146.022 129.535 142.278 125.686C138.534 121.837 133.097 117.988 132.75 111.563C132.403 105.137 137.146 93.8635 144.034 85.4819C144.034 85.4819 116.544 77.7313 114.515 101.257L109.025 103.36C109.025 103.36 103.167 100.531 103.304 91.0767C103.441 81.6223 112.075 74.6815 121.477 74.8497C130.878 75.018 153.562 70.9376 142.51 42.3012C142.51 42.3012 151.533 45.6034 153.888 38.3786C156.244 31.1538 148.073 27.3047 143.372 31.3431C143.372 31.3431 139.523 25.4013 150.933 12.3188C149.661 8.17527 145.254 7.06052 147.147 2.85393C148.683 -0.532377 158.316 -0.532395 165.551 0.929395C160.714 3.89504 157.474 8.55387 160.167 15.8418C166.782 33.7198 164.92 42.3223 159.189 49.9572C153.457 57.5922 146.979 73.0935 152.49 85.4819C158 97.8703 149.903 92.1704 152.332 116.684C154.761 141.198 185.774 126.265 184.807 106.294C183.934 88.2477 172.986 82.1797 179.37 73.6929C179.528 74.5732 179.782 75.4336 180.127 76.2589C183.166 83.4417 195.145 89.7305 193.546 105.337Z" fill="#B57724"/>
<path d="M143.214 35.6654C146.222 33.7934 149.072 33.9617 150.723 35.1501" stroke="#EF8A66" stroke-width="1.09372" stroke-linecap="round" stroke-linejoin="round"/>
<path d="M143.478 38.5995C147.905 40.503 148.736 34.803 145.118 34.7294" stroke="#EF8A66" stroke-width="1.09372" stroke-linecap="round" stroke-linejoin="round"/>
<path d="M166.319 10.163C171.167 11.6774 178.423 19.3018 178.423 19.3018" stroke="#9B621F" stroke-width="1.09372" stroke-linecap="round" stroke-linejoin="round"/>
<path d="M183.503 17.0513C177.772 18.6393 173.891 23.3086 175.458 30.2179C177.414 38.8414 182.346 37.6425 182.346 37.6425" stroke="#9B621F" stroke-width="1.09372" stroke-linecap="round" stroke-linejoin="round"/>
<path d="M177.193 21.0158C181.631 19.2385 186.931 18.4813 188.95 24.0971C190.969 29.7129 188.014 34.0667 183.503 37.2743" stroke="#9B621F" stroke-width="1.09372" stroke-linecap="round" stroke-linejoin="round"/>
<path d="M154.867 24.4442C163.911 27.1575 175.363 26.4423 175.363 26.4423" stroke="#9B621F" stroke-width="1.09372" stroke-linecap="round" stroke-linejoin="round"/>
<path d="M157.359 40.1349C165.257 42.0804 175.237 36.349 176.814 34.0774" stroke="#9B621F" stroke-width="1.09372" stroke-linecap="round" stroke-linejoin="round"/>
<path d="M175.195 28.693C176.478 25.1594 180.106 22.8353 182.799 26.3267C185.491 29.8182 181.453 33.52 178.182 29.6604" stroke="#9B621F" stroke-width="1.09372" stroke-linecap="round" stroke-linejoin="round"/>
<path d="M144.044 85.5345C151.7 76.5008 158.158 69.2865 154.876 56.2461" stroke="#9B621F" stroke-width="1.09372" stroke-linecap="round" stroke-linejoin="round"/>
<path d="M158.022 145.868C162.66 138.779 155.498 128.368 154.404 121.501C153.311 114.634 153.069 106.021 161.692 96.6714" stroke="#9B621F" stroke-width="1.09372" stroke-linecap="round" stroke-linejoin="round"/>
<path d="M169.663 65.7426C176.099 82.1167 177.109 84.7564 173.617 97.0186C170.126 109.281 168.023 115.359 173.617 124.109C179.833 133.805 177.887 137.318 176.877 141.608" stroke="#9B621F" stroke-width="1.09372" stroke-linecap="round" stroke-linejoin="round"/>
<path d="M141.121 30.8803C141.532 33.1098 139.397 35.3708 136.368 35.9177C133.339 36.4646 130.552 35.1079 130.142 32.8679C129.732 30.6279 131.867 28.3774 134.896 27.8305C137.924 27.2837 140.711 28.6403 141.121 30.8803Z" fill="#F4AF90"/>
<g clip-path="url(#clip0_546_14139)">
<path d="M47.0405 57.2416C47.6276 59.5049 49.0897 61.4423 51.1052 62.6275C53.1207 63.8128 55.5245 64.1488 57.7878 63.5617M57.7878 63.5617C60.051 62.9747 61.9884 61.5125 63.1736 59.497C64.3589 57.4816 64.6949 55.0778 64.1078 52.8145M57.7878 63.5617L59.0527 68.4381M54.1763 69.703L63.929 67.1732M50.3358 49.8813C50.0842 48.9113 50.2282 47.8811 50.7362 47.0173C51.2441 46.1535 52.0744 45.5269 53.0444 45.2753C54.0144 45.0237 55.0446 45.1677 55.9083 45.6757C56.7721 46.1837 57.3987 47.014 57.6503 47.9839L59.2315 54.0794C59.4831 55.0494 59.3391 56.0796 58.8311 56.9433C58.3231 57.8071 57.4928 58.4337 56.5229 58.6854C55.5529 58.937 54.5227 58.7929 53.6589 58.285C52.7951 57.777 52.1685 56.9467 51.9169 55.9767L50.3358 49.8813Z" stroke="#D8D5D5" stroke-width="2.9166" stroke-linecap="round" stroke-linejoin="round"/>
</g>
<defs>
<clipPath id="clip0_546_14139">
<rect width="30.2265" height="30.2265" fill="white" transform="translate(37.7832 46.632) rotate(-14.5416)"/>
</clipPath>
</defs>
</svg>
