<svg width="174" height="60" viewBox="0 0 174 60" fill="none" xmlns="http://www.w3.org/2000/svg">
<g filter="url(#filter0_d_773_24134)">
<rect x="16.5" y="6" width="141" height="28" rx="6" fill="#141A27" shape-rendering="crispEdges"/>
<rect x="17" y="6.5" width="140" height="27" rx="5.5" stroke="#1D2633" shape-rendering="crispEdges"/>
<path d="M27.6545 25V16.36H31.1465C31.2305 16.36 31.3345 16.364 31.4585 16.372C31.5825 16.376 31.7005 16.388 31.8125 16.408C32.2925 16.484 32.6925 16.648 33.0125 16.9C33.3365 17.152 33.5785 17.47 33.7385 17.854C33.8985 18.238 33.9785 18.662 33.9785 19.126C33.9785 19.814 33.8025 20.408 33.4505 20.908C33.0985 21.404 32.5705 21.714 31.8665 21.838L31.3565 21.898H28.9085V25H27.6545ZM32.7065 25L31.0025 21.484L32.2685 21.16L34.1405 25H32.7065ZM28.9085 20.71H31.0985C31.1785 20.71 31.2665 20.706 31.3625 20.698C31.4625 20.69 31.5565 20.676 31.6445 20.656C31.9005 20.596 32.1065 20.486 32.2625 20.326C32.4185 20.162 32.5305 19.974 32.5985 19.762C32.6665 19.55 32.7005 19.338 32.7005 19.126C32.7005 18.914 32.6665 18.704 32.5985 18.496C32.5305 18.284 32.4185 18.098 32.2625 17.938C32.1065 17.774 31.9005 17.662 31.6445 17.602C31.5565 17.578 31.4625 17.562 31.3625 17.554C31.2665 17.546 31.1785 17.542 31.0985 17.542H28.9085V20.71ZM38.3331 25.18C37.6891 25.18 37.1231 25.04 36.6351 24.76C36.1511 24.476 35.7731 24.082 35.5011 23.578C35.2331 23.07 35.0991 22.482 35.0991 21.814C35.0991 21.106 35.2311 20.492 35.4951 19.972C35.7631 19.452 36.1351 19.05 36.6111 18.766C37.0871 18.482 37.6411 18.34 38.2731 18.34C38.9331 18.34 39.4951 18.494 39.9591 18.802C40.4231 19.106 40.7691 19.54 40.9971 20.104C41.2291 20.668 41.3211 21.338 41.2731 22.114H40.0191V21.658C40.0111 20.906 39.8671 20.35 39.5871 19.99C39.3111 19.63 38.8891 19.45 38.3211 19.45C37.6931 19.45 37.2211 19.648 36.9051 20.044C36.5891 20.44 36.4311 21.012 36.4311 21.76C36.4311 22.472 36.5891 23.024 36.9051 23.416C37.2211 23.804 37.6771 23.998 38.2731 23.998C38.6651 23.998 39.0031 23.91 39.2871 23.734C39.5751 23.554 39.7991 23.298 39.9591 22.966L41.1891 23.356C40.9371 23.936 40.5551 24.386 40.0431 24.706C39.5311 25.022 38.9611 25.18 38.3331 25.18ZM36.0231 22.114V21.136H40.6491V22.114H36.0231ZM45.0973 25.174C44.3093 25.174 43.6673 25 43.1713 24.652C42.6753 24.304 42.3713 23.814 42.2593 23.182L43.5433 22.984C43.6233 23.32 43.8073 23.586 44.0953 23.782C44.3873 23.974 44.7493 24.07 45.1813 24.07C45.5733 24.07 45.8793 23.99 46.0993 23.83C46.3233 23.67 46.4353 23.45 46.4353 23.17C46.4353 23.006 46.3953 22.874 46.3153 22.774C46.2393 22.67 46.0773 22.572 45.8293 22.48C45.5813 22.388 45.2033 22.274 44.6953 22.138C44.1393 21.994 43.6973 21.84 43.3693 21.676C43.0453 21.508 42.8133 21.314 42.6733 21.094C42.5373 20.87 42.4693 20.6 42.4693 20.284C42.4693 19.892 42.5733 19.55 42.7813 19.258C42.9893 18.966 43.2813 18.74 43.6573 18.58C44.0373 18.42 44.4813 18.34 44.9893 18.34C45.4853 18.34 45.9273 18.418 46.3153 18.574C46.7033 18.73 47.0173 18.952 47.2573 19.24C47.4973 19.524 47.6413 19.858 47.6893 20.242L46.4053 20.476C46.3613 20.164 46.2153 19.918 45.9673 19.738C45.7193 19.558 45.3973 19.46 45.0013 19.444C44.6213 19.428 44.3133 19.492 44.0773 19.636C43.8413 19.776 43.7233 19.97 43.7233 20.218C43.7233 20.362 43.7673 20.484 43.8553 20.584C43.9473 20.684 44.1233 20.78 44.3833 20.872C44.6433 20.964 45.0273 21.074 45.5353 21.202C46.0793 21.342 46.5113 21.498 46.8313 21.67C47.1513 21.838 47.3793 22.04 47.5153 22.276C47.6553 22.508 47.7253 22.79 47.7253 23.122C47.7253 23.762 47.4913 24.264 47.0233 24.628C46.5593 24.992 45.9173 25.174 45.0973 25.174ZM51.4949 25.174C51.0469 25.174 50.6709 25.102 50.3669 24.958C50.0629 24.814 49.8149 24.626 49.6229 24.394C49.4349 24.158 49.2909 23.902 49.1909 23.626C49.0909 23.35 49.0229 23.08 48.9869 22.816C48.9509 22.552 48.9329 22.32 48.9329 22.12V18.52H50.2049V21.706C50.2049 21.958 50.2249 22.218 50.2649 22.486C50.3089 22.75 50.3889 22.996 50.5049 23.224C50.6249 23.452 50.7909 23.636 51.0029 23.776C51.2189 23.916 51.4989 23.986 51.8429 23.986C52.0669 23.986 52.2789 23.95 52.4789 23.878C52.6789 23.802 52.8529 23.682 53.0009 23.518C53.1529 23.354 53.2709 23.138 53.3549 22.87C53.4429 22.602 53.4869 22.276 53.4869 21.892L54.2669 22.186C54.2669 22.774 54.1569 23.294 53.9369 23.746C53.7169 24.194 53.4009 24.544 52.9889 24.796C52.5769 25.048 52.0789 25.174 51.4949 25.174ZM53.6369 25V23.128H53.4869V18.52H54.7529V25H53.6369ZM59.4777 25.18C58.8577 25.18 58.3377 25.03 57.9177 24.73C57.4977 24.426 57.1797 24.016 56.9637 23.5C56.7477 22.984 56.6397 22.402 56.6397 21.754C56.6397 21.106 56.7457 20.524 56.9577 20.008C57.1737 19.492 57.4897 19.086 57.9057 18.79C58.3257 18.49 58.8417 18.34 59.4537 18.34C60.0617 18.34 60.5857 18.49 61.0257 18.79C61.4697 19.086 61.8117 19.492 62.0517 20.008C62.2917 20.52 62.4117 21.102 62.4117 21.754C62.4117 22.402 62.2917 22.986 62.0517 23.506C61.8157 24.022 61.4777 24.43 61.0377 24.73C60.6017 25.03 60.0817 25.18 59.4777 25.18ZM56.4297 25V16.36H57.6897V20.338H57.5457V25H56.4297ZM59.3037 24.046C59.7037 24.046 60.0337 23.944 60.2937 23.74C60.5577 23.536 60.7537 23.262 60.8817 22.918C61.0137 22.57 61.0797 22.182 61.0797 21.754C61.0797 21.33 61.0137 20.946 60.8817 20.602C60.7537 20.258 60.5557 19.984 60.2877 19.78C60.0197 19.576 59.6777 19.474 59.2617 19.474C58.8697 19.474 58.5457 19.57 58.2897 19.762C58.0377 19.954 57.8497 20.222 57.7257 20.566C57.6057 20.91 57.5457 21.306 57.5457 21.754C57.5457 22.202 57.6057 22.598 57.7257 22.942C57.8457 23.286 58.0357 23.556 58.2957 23.752C58.5557 23.948 58.8917 24.046 59.3037 24.046ZM71.5005 25L71.5065 20.962C71.5065 20.494 71.3865 20.13 71.1465 19.87C70.9065 19.606 70.5905 19.474 70.1985 19.474C69.9585 19.474 69.7385 19.53 69.5385 19.642C69.3425 19.75 69.1825 19.914 69.0585 20.134C68.9385 20.35 68.8785 20.622 68.8785 20.95L68.2725 20.644C68.2645 20.188 68.3605 19.788 68.5605 19.444C68.7645 19.1 69.0405 18.834 69.3885 18.646C69.7365 18.454 70.1265 18.358 70.5585 18.358C71.2585 18.358 71.8005 18.568 72.1845 18.988C72.5685 19.408 72.7605 19.966 72.7605 20.662L72.7545 25H71.5005ZM63.7305 25V18.52H64.8465V20.392H64.9905V25H63.7305ZM67.6185 25L67.6245 20.986C67.6245 20.514 67.5045 20.144 67.2645 19.876C67.0285 19.608 66.7105 19.474 66.3105 19.474C65.9145 19.474 65.5945 19.61 65.3505 19.882C65.1105 20.154 64.9905 20.51 64.9905 20.95L64.3905 20.566C64.3905 20.142 64.4925 19.764 64.6965 19.432C64.9005 19.1 65.1765 18.838 65.5245 18.646C65.8725 18.454 66.2665 18.358 66.7065 18.358C67.1665 18.358 67.5585 18.456 67.8825 18.652C68.2065 18.844 68.4525 19.114 68.6205 19.462C68.7925 19.81 68.8785 20.214 68.8785 20.674L68.8725 25H67.6185ZM74.4385 17.458V16.24H75.6925V17.458H74.4385ZM74.4385 25V18.52H75.6925V25H74.4385ZM81.2023 25C80.7943 25.08 80.3943 25.114 80.0023 25.102C79.6103 25.09 79.2603 25.014 78.9523 24.874C78.6443 24.734 78.4123 24.514 78.2563 24.214C78.1163 23.946 78.0403 23.674 78.0283 23.398C78.0203 23.118 78.0163 22.802 78.0163 22.45V16.72H79.2763V22.39C79.2763 22.65 79.2783 22.876 79.2823 23.068C79.2903 23.26 79.3323 23.422 79.4083 23.554C79.5523 23.802 79.7803 23.944 80.0923 23.98C80.4083 24.012 80.7783 23.998 81.2023 23.938V25ZM76.7743 19.528V18.52H81.2023V19.528H76.7743ZM84.3709 25L87.1789 16.36H88.9849L91.7929 25H90.4909L87.9049 17.116H88.2289L85.6729 25H84.3709ZM85.8289 23.05V21.874H90.3409V23.05H85.8289ZM97.4173 25V21.814C97.4173 21.562 97.3953 21.304 97.3513 21.04C97.3113 20.772 97.2313 20.524 97.1113 20.296C96.9953 20.068 96.8293 19.884 96.6133 19.744C96.4013 19.604 96.1233 19.534 95.7793 19.534C95.5553 19.534 95.3433 19.572 95.1433 19.648C94.9433 19.72 94.7673 19.838 94.6153 20.002C94.4673 20.166 94.3493 20.382 94.2613 20.65C94.1773 20.918 94.1353 21.244 94.1353 21.628L93.3553 21.334C93.3553 20.746 93.4653 20.228 93.6853 19.78C93.9053 19.328 94.2213 18.976 94.6333 18.724C95.0453 18.472 95.5433 18.346 96.1273 18.346C96.5753 18.346 96.9513 18.418 97.2553 18.562C97.5593 18.706 97.8053 18.896 97.9933 19.132C98.1853 19.364 98.3313 19.618 98.4313 19.894C98.5313 20.17 98.5993 20.44 98.6353 20.704C98.6713 20.968 98.6893 21.2 98.6893 21.4V25H97.4173ZM92.8633 25V18.52H93.9853V20.392H94.1353V25H92.8633ZM102.73 25.174C101.942 25.174 101.3 25 100.804 24.652C100.308 24.304 100.004 23.814 99.8921 23.182L101.176 22.984C101.256 23.32 101.44 23.586 101.728 23.782C102.02 23.974 102.382 24.07 102.814 24.07C103.206 24.07 103.512 23.99 103.732 23.83C103.956 23.67 104.068 23.45 104.068 23.17C104.068 23.006 104.028 22.874 103.948 22.774C103.872 22.67 103.71 22.572 103.462 22.48C103.214 22.388 102.836 22.274 102.328 22.138C101.772 21.994 101.33 21.84 101.002 21.676C100.678 21.508 100.446 21.314 100.306 21.094C100.17 20.87 100.102 20.6 100.102 20.284C100.102 19.892 100.206 19.55 100.414 19.258C100.622 18.966 100.914 18.74 101.29 18.58C101.67 18.42 102.114 18.34 102.622 18.34C103.118 18.34 103.56 18.418 103.948 18.574C104.336 18.73 104.65 18.952 104.89 19.24C105.13 19.524 105.274 19.858 105.322 20.242L104.038 20.476C103.994 20.164 103.848 19.918 103.6 19.738C103.352 19.558 103.03 19.46 102.634 19.444C102.254 19.428 101.946 19.492 101.71 19.636C101.474 19.776 101.356 19.97 101.356 20.218C101.356 20.362 101.4 20.484 101.488 20.584C101.58 20.684 101.756 20.78 102.016 20.872C102.276 20.964 102.66 21.074 103.168 21.202C103.712 21.342 104.144 21.498 104.464 21.67C104.784 21.838 105.012 22.04 105.148 22.276C105.288 22.508 105.358 22.79 105.358 23.122C105.358 23.762 105.124 24.264 104.656 24.628C104.192 24.992 103.55 25.174 102.73 25.174ZM107.831 25L105.851 18.514L107.093 18.52L108.449 22.966L109.817 18.52H110.897L112.265 22.966L113.621 18.52H114.857L112.877 25H111.869L110.357 20.308L108.839 25H107.831ZM118.571 25.18C117.927 25.18 117.361 25.04 116.873 24.76C116.389 24.476 116.011 24.082 115.739 23.578C115.471 23.07 115.337 22.482 115.337 21.814C115.337 21.106 115.469 20.492 115.733 19.972C116.001 19.452 116.373 19.05 116.849 18.766C117.325 18.482 117.879 18.34 118.511 18.34C119.171 18.34 119.733 18.494 120.197 18.802C120.661 19.106 121.007 19.54 121.235 20.104C121.467 20.668 121.559 21.338 121.511 22.114H120.257V21.658C120.249 20.906 120.105 20.35 119.825 19.99C119.549 19.63 119.127 19.45 118.559 19.45C117.931 19.45 117.459 19.648 117.143 20.044C116.827 20.44 116.669 21.012 116.669 21.76C116.669 22.472 116.827 23.024 117.143 23.416C117.459 23.804 117.915 23.998 118.511 23.998C118.903 23.998 119.241 23.91 119.525 23.734C119.813 23.554 120.037 23.298 120.197 22.966L121.427 23.356C121.175 23.936 120.793 24.386 120.281 24.706C119.769 25.022 119.199 25.18 118.571 25.18ZM116.261 22.114V21.136H120.887V22.114H116.261ZM122.858 25V18.52H123.974V20.092L123.818 19.888C123.898 19.68 124.002 19.49 124.13 19.318C124.258 19.142 124.406 18.998 124.574 18.886C124.738 18.766 124.92 18.674 125.12 18.61C125.324 18.542 125.532 18.502 125.744 18.49C125.956 18.474 126.16 18.484 126.356 18.52V19.696C126.144 19.64 125.908 19.624 125.648 19.648C125.392 19.672 125.156 19.754 124.94 19.894C124.736 20.026 124.574 20.186 124.454 20.374C124.338 20.562 124.254 20.772 124.202 21.004C124.15 21.232 124.124 21.474 124.124 21.73V25H122.858ZM129.106 22.654C129.106 22.366 129.128 22.096 129.172 21.844C129.22 21.592 129.308 21.352 129.436 21.124C129.544 20.908 129.67 20.734 129.814 20.602C129.962 20.466 130.122 20.334 130.294 20.206C130.47 20.074 130.654 19.906 130.846 19.702C131.006 19.526 131.112 19.348 131.164 19.168C131.22 18.988 131.248 18.794 131.248 18.586C131.248 18.434 131.23 18.292 131.194 18.16C131.158 18.028 131.098 17.914 131.014 17.818C130.886 17.658 130.724 17.546 130.528 17.482C130.332 17.414 130.128 17.38 129.916 17.38C129.724 17.38 129.54 17.406 129.364 17.458C129.192 17.51 129.048 17.59 128.932 17.698C128.808 17.802 128.716 17.932 128.656 18.088C128.6 18.24 128.574 18.406 128.578 18.586H127.258C127.29 18.21 127.386 17.858 127.546 17.53C127.706 17.202 127.922 16.936 128.194 16.732C128.426 16.548 128.69 16.412 128.986 16.324C129.282 16.232 129.578 16.186 129.874 16.186C130.298 16.186 130.698 16.252 131.074 16.384C131.454 16.516 131.77 16.73 132.022 17.026C132.206 17.234 132.344 17.472 132.436 17.74C132.532 18.004 132.58 18.278 132.58 18.562C132.58 18.942 132.498 19.294 132.334 19.618C132.174 19.942 131.968 20.238 131.716 20.506C131.584 20.646 131.45 20.774 131.314 20.89C131.178 21.002 131.052 21.112 130.936 21.22C130.82 21.328 130.724 21.446 130.648 21.574C130.54 21.758 130.478 21.924 130.462 22.072C130.446 22.216 130.438 22.41 130.438 22.654H129.106ZM129.112 25V23.548H130.438V25H129.112Z" fill="#F9FAFB"/>
<path d="M139 20.5L141.5 23L144 20.5" stroke="#F2F3F5" stroke-width="0.8" stroke-linecap="round" stroke-linejoin="round"/>
<path d="M139 17.5L141.5 20L144 17.5" stroke="#9198A3" stroke-width="0.8" stroke-linecap="round" stroke-linejoin="round"/>
</g>
<defs>
<filter id="filter0_d_773_24134" x="0.5" y="0" width="173" height="60" filterUnits="userSpaceOnUse" color-interpolation-filters="sRGB">
<feFlood flood-opacity="0" result="BackgroundImageFix"/>
<feColorMatrix in="SourceAlpha" type="matrix" values="0 0 0 0 0 0 0 0 0 0 0 0 0 0 0 0 0 0 127 0" result="hardAlpha"/>
<feMorphology radius="2" operator="erode" in="SourceAlpha" result="effect1_dropShadow_773_24134"/>
<feOffset dy="10"/>
<feGaussianBlur stdDeviation="9"/>
<feComposite in2="hardAlpha" operator="out"/>
<feColorMatrix type="matrix" values="0 0 0 0 0.0392157 0 0 0 0 0.0352941 0 0 0 0 0.0431373 0 0 0 0.07 0"/>
<feBlend mode="normal" in2="BackgroundImageFix" result="effect1_dropShadow_773_24134"/>
<feBlend mode="normal" in="SourceGraphic" in2="effect1_dropShadow_773_24134" result="shape"/>
</filter>
</defs>
</svg>
