<svg width="24" height="24" viewBox="0 0 24 24" fill="none" xmlns="http://www.w3.org/2000/svg">
<rect width="24" height="24" rx="4" fill="#5A5FBC"/>
<path d="M6.66667 14.6665L10.6667 9.99984L14 13.3332L17.3333 9.33317M13.3333 13.3332C13.3333 13.51 13.4036 13.6796 13.5286 13.8046C13.6536 13.9296 13.8232 13.9998 14 13.9998C14.1768 13.9998 14.3464 13.9296 14.4714 13.8046C14.5964 13.6796 14.6667 13.51 14.6667 13.3332C14.6667 13.1564 14.5964 12.9868 14.4714 12.8618C14.3464 12.7367 14.1768 12.6665 14 12.6665C13.8232 12.6665 13.6536 12.7367 13.5286 12.8618C13.4036 12.9868 13.3333 13.1564 13.3333 13.3332ZM10 9.99984C10 10.1766 10.0702 10.3462 10.1953 10.4712C10.3203 10.5963 10.4899 10.6665 10.6667 10.6665C10.8435 10.6665 11.013 10.5963 11.1381 10.4712C11.2631 10.3462 11.3333 10.1766 11.3333 9.99984C11.3333 9.82303 11.2631 9.65346 11.1381 9.52843C11.013 9.40341 10.8435 9.33317 10.6667 9.33317C10.4899 9.33317 10.3203 9.40341 10.1953 9.52843C10.0702 9.65346 10 9.82303 10 9.99984ZM6 14.6665C6 14.8433 6.07024 15.0129 6.19526 15.1379C6.32029 15.2629 6.48986 15.3332 6.66667 15.3332C6.84348 15.3332 7.01305 15.2629 7.13807 15.1379C7.2631 15.0129 7.33333 14.8433 7.33333 14.6665C7.33333 14.4897 7.2631 14.3201 7.13807 14.1951C7.01305 14.0701 6.84348 13.9998 6.66667 13.9998C6.48986 13.9998 6.32029 14.0701 6.19526 14.1951C6.07024 14.3201 6 14.4897 6 14.6665ZM16.6667 9.33317C16.6667 9.50998 16.7369 9.67955 16.8619 9.80457C16.987 9.9296 17.1565 9.99984 17.3333 9.99984C17.5101 9.99984 17.6797 9.9296 17.8047 9.80457C17.9298 9.67955 18 9.50998 18 9.33317C18 9.15636 17.9298 8.98679 17.8047 8.86177C17.6797 8.73674 17.5101 8.6665 17.3333 8.6665C17.1565 8.6665 16.987 8.73674 16.8619 8.86177C16.7369 8.98679 16.6667 9.15636 16.6667 9.33317Z" stroke="#F9FAFB" stroke-width="1.25" stroke-linecap="round" stroke-linejoin="round"/>
</svg>
