<svg width="19" height="19" viewBox="0 0 19 19" fill="none" xmlns="http://www.w3.org/2000/svg">
<g id="vuesax/bold/shield-tick">
<path id="Vector" d="M4.75957 12.9185L4.75957 12.9185L4.75743 12.9169C4.59086 12.7939 4.41257 12.5709 4.275 12.2949C4.1376 12.0193 4.0653 11.74 4.0653 11.5291V5.46945C4.0653 5.1608 4.18543 4.8091 4.40243 4.49608C4.61926 4.18332 4.90695 3.94649 5.19731 3.83676C5.19749 3.83669 5.19768 3.83662 5.19786 3.83656L9.30898 2.29675C9.30933 2.29662 9.30968 2.29649 9.31003 2.29636C9.45555 2.24297 9.67669 2.20787 9.92093 2.20787C10.1652 2.20787 10.3863 2.24297 10.5318 2.29636C10.5322 2.29649 10.5325 2.29662 10.5329 2.29675L14.6426 3.83603C14.643 3.83618 14.6434 3.83632 14.6438 3.83646C14.9302 3.94593 15.216 4.18235 15.431 4.49478C15.6464 4.80762 15.7643 5.15822 15.7616 5.4653H15.7616V5.46945V11.5291C15.7616 11.7396 15.6895 12.0169 15.5521 12.2916C15.415 12.5659 15.2361 12.791 15.0663 12.9192C15.0661 12.9193 15.0659 12.9195 15.0657 12.9196L10.9528 15.9932L10.9515 15.9941C10.6841 16.1953 10.3095 16.3093 9.91345 16.3093C9.51736 16.3093 9.14276 16.1953 8.87542 15.9941L8.87414 15.9932L4.75957 12.9185ZM11.403 6.45406L8.91473 8.94237L8.43883 8.46647C8.03849 8.06613 7.38207 8.06613 6.98173 8.46647C6.5818 8.86639 6.58139 9.52188 6.9805 9.92233C6.98091 9.92274 6.98132 9.92315 6.98173 9.92356L8.17664 11.1334L8.17663 11.1334L8.1787 11.1355C8.38362 11.3404 8.64728 11.4376 8.90725 11.4376C9.16721 11.4376 9.43087 11.3404 9.63579 11.1355L12.8503 7.92104C13.2614 7.52004 13.2603 6.85424 12.8601 6.45406C12.4598 6.05373 11.8034 6.05373 11.403 6.45406Z" stroke="black" stroke-width="0.939187"/>
</g>
</svg>
