<svg width="32" height="32" viewBox="0 0 32 32" fill="none" xmlns="http://www.w3.org/2000/svg">
<path d="M0.5 9.66C0.5 7.94314 0.500402 6.68606 0.582725 5.69476C0.66455 4.70945 0.824719 4.03159 1.11923 3.46464C1.64104 2.4601 2.4601 1.64104 3.46464 1.11923C4.03159 0.824719 4.70945 0.66455 5.69476 0.582725C6.68606 0.500402 7.94314 0.5 9.66 0.5H22.34C24.0569 0.5 25.3139 0.500402 26.3052 0.582725C27.2905 0.66455 27.9684 0.824719 28.5354 1.11923C29.5399 1.64104 30.359 2.4601 30.8808 3.46464C31.1753 4.03159 31.3354 4.70945 31.4173 5.69476C31.4996 6.68606 31.5 7.94314 31.5 9.66V22.34C31.5 24.0569 31.4996 25.3139 31.4173 26.3052C31.3354 27.2905 31.1753 27.9684 30.8808 28.5354C30.359 29.5399 29.5399 30.359 28.5354 30.8808C27.9684 31.1753 27.2905 31.3354 26.3052 31.4173C25.3139 31.4996 24.0569 31.5 22.34 31.5H9.66C7.94314 31.5 6.68606 31.4996 5.69476 31.4173C4.70945 31.3354 4.03159 31.1753 3.46464 30.8808C2.4601 30.359 1.64104 29.5399 1.11923 28.5354C0.824719 27.9684 0.66455 27.2905 0.582725 26.3052C0.500402 25.3139 0.5 24.0569 0.5 22.34V9.66Z" fill="white"/>
<path d="M0.5 9.66C0.5 7.94314 0.500402 6.68606 0.582725 5.69476C0.66455 4.70945 0.824719 4.03159 1.11923 3.46464C1.64104 2.4601 2.4601 1.64104 3.46464 1.11923C4.03159 0.824719 4.70945 0.66455 5.69476 0.582725C6.68606 0.500402 7.94314 0.5 9.66 0.5H22.34C24.0569 0.5 25.3139 0.500402 26.3052 0.582725C27.2905 0.66455 27.9684 0.824719 28.5354 1.11923C29.5399 1.64104 30.359 2.4601 30.8808 3.46464C31.1753 4.03159 31.3354 4.70945 31.4173 5.69476C31.4996 6.68606 31.5 7.94314 31.5 9.66V22.34C31.5 24.0569 31.4996 25.3139 31.4173 26.3052C31.3354 27.2905 31.1753 27.9684 30.8808 28.5354C30.359 29.5399 29.5399 30.359 28.5354 30.8808C27.9684 31.1753 27.2905 31.3354 26.3052 31.4173C25.3139 31.4996 24.0569 31.5 22.34 31.5H9.66C7.94314 31.5 6.68606 31.4996 5.69476 31.4173C4.70945 31.3354 4.03159 31.1753 3.46464 30.8808C2.4601 30.359 1.64104 29.5399 1.11923 28.5354C0.824719 27.9684 0.66455 27.2905 0.582725 26.3052C0.500402 25.3139 0.5 24.0569 0.5 22.34V9.66Z" stroke="#E0E2E6"/>
<path d="M11.9998 15.9998C11.6462 15.9998 11.3071 15.8594 11.057 15.6093C10.807 15.3593 10.6665 15.0201 10.6665 14.6665C10.6665 14.3129 10.807 13.9737 11.057 13.7237C11.3071 13.4736 11.6462 13.3332 11.9998 13.3332M11.9998 15.9998C12.3535 15.9998 12.6926 15.8594 12.9426 15.6093C13.1927 15.3593 13.3332 15.0201 13.3332 14.6665C13.3332 14.3129 13.1927 13.9737 12.9426 13.7237C12.6926 13.4736 12.3535 13.3332 11.9998 13.3332M11.9998 15.9998V21.3332M11.9998 13.3332V10.6665M15.9998 19.9998C15.6462 19.9998 15.3071 19.8594 15.057 19.6093C14.807 19.3593 14.6665 19.0201 14.6665 18.6665C14.6665 18.3129 14.807 17.9737 15.057 17.7237C15.3071 17.4736 15.6462 17.3332 15.9998 17.3332M15.9998 19.9998C16.3535 19.9998 16.6926 19.8594 16.9426 19.6093C17.1927 19.3593 17.3332 19.0201 17.3332 18.6665C17.3332 18.3129 17.1927 17.9737 16.9426 17.7237C16.6926 17.4736 16.3535 17.3332 15.9998 17.3332M15.9998 19.9998V21.3332M15.9998 17.3332V10.6665M19.9998 13.9998C19.6462 13.9998 19.3071 13.8594 19.057 13.6093C18.807 13.3593 18.6665 13.0201 18.6665 12.6665C18.6665 12.3129 18.807 11.9737 19.057 11.7237C19.3071 11.4736 19.6462 11.3332 19.9998 11.3332M19.9998 13.9998C20.3535 13.9998 20.6926 13.8594 20.9426 13.6093C21.1927 13.3593 21.3332 13.0201 21.3332 12.6665C21.3332 12.3129 21.1927 11.9737 20.9426 11.7237C20.6926 11.4736 20.3535 11.3332 19.9998 11.3332M19.9998 13.9998V21.3332M19.9998 11.3332V10.6665" stroke="#303947" stroke-width="1.25" stroke-linecap="round" stroke-linejoin="round"/>
</svg>
