<svg width="250" height="60" viewBox="0 0 250 60" fill="none" xmlns="http://www.w3.org/2000/svg">
<g filter="url(#filter0_d_546_15705)">
<rect x="16.5" y="6" width="217" height="28" rx="6" fill="#141A27" shape-rendering="crispEdges"/>
<rect x="17" y="6.5" width="216" height="27" rx="5.5" stroke="#1D2633" shape-rendering="crispEdges"/>
<path d="M29.5643 25V17.542H26.6903V16.36H33.6923V17.542H30.8183V25H29.5643ZM35.6388 25.18C35.1588 25.18 34.7568 25.092 34.4328 24.916C34.1088 24.736 33.8628 24.5 33.6948 24.208C33.5308 23.912 33.4488 23.588 33.4488 23.236C33.4488 22.908 33.5068 22.62 33.6228 22.372C33.7388 22.124 33.9108 21.914 34.1388 21.742C34.3668 21.566 34.6468 21.424 34.9788 21.316C35.2668 21.232 35.5928 21.158 35.9568 21.094C36.3208 21.03 36.7028 20.97 37.1028 20.914C37.5068 20.858 37.9068 20.802 38.3028 20.746L37.8468 20.998C37.8548 20.49 37.7468 20.114 37.5228 19.87C37.3028 19.622 36.9228 19.498 36.3828 19.498C36.0428 19.498 35.7308 19.578 35.4468 19.738C35.1628 19.894 34.9648 20.154 34.8528 20.518L33.6828 20.158C33.8428 19.602 34.1468 19.16 34.5948 18.832C35.0468 18.504 35.6468 18.34 36.3948 18.34C36.9748 18.34 37.4788 18.44 37.9068 18.64C38.3388 18.836 38.6548 19.148 38.8548 19.576C38.9588 19.788 39.0228 20.012 39.0468 20.248C39.0708 20.484 39.0828 20.738 39.0828 21.01V25H37.9728V23.518L38.1888 23.71C37.9208 24.206 37.5788 24.576 37.1628 24.82C36.7508 25.06 36.2428 25.18 35.6388 25.18ZM35.8608 24.154C36.2168 24.154 36.5228 24.092 36.7788 23.968C37.0348 23.84 37.2408 23.678 37.3968 23.482C37.5528 23.286 37.6548 23.082 37.7028 22.87C37.7708 22.678 37.8088 22.462 37.8168 22.222C37.8288 21.982 37.8348 21.79 37.8348 21.646L38.2428 21.796C37.8468 21.856 37.4868 21.91 37.1628 21.958C36.8388 22.006 36.5448 22.054 36.2808 22.102C36.0208 22.146 35.7888 22.2 35.5848 22.264C35.4128 22.324 35.2588 22.396 35.1228 22.48C34.9908 22.564 34.8848 22.666 34.8048 22.786C34.7288 22.906 34.6908 23.052 34.6908 23.224C34.6908 23.392 34.7328 23.548 34.8168 23.692C34.9008 23.832 35.0288 23.944 35.2008 24.028C35.3728 24.112 35.5928 24.154 35.8608 24.154ZM43.6828 25.18C43.0628 25.18 42.5428 25.03 42.1228 24.73C41.7028 24.426 41.3848 24.016 41.1688 23.5C40.9528 22.984 40.8448 22.402 40.8448 21.754C40.8448 21.106 40.9508 20.524 41.1628 20.008C41.3788 19.492 41.6948 19.086 42.1108 18.79C42.5308 18.49 43.0468 18.34 43.6588 18.34C44.2668 18.34 44.7908 18.49 45.2308 18.79C45.6748 19.086 46.0168 19.492 46.2568 20.008C46.4968 20.52 46.6168 21.102 46.6168 21.754C46.6168 22.402 46.4968 22.986 46.2568 23.506C46.0208 24.022 45.6828 24.43 45.2428 24.73C44.8068 25.03 44.2868 25.18 43.6828 25.18ZM40.6348 27.88V18.52H41.7508V23.182H41.8948V27.88H40.6348ZM43.5088 24.046C43.9088 24.046 44.2388 23.944 44.4988 23.74C44.7628 23.536 44.9588 23.262 45.0868 22.918C45.2188 22.57 45.2848 22.182 45.2848 21.754C45.2848 21.33 45.2188 20.946 45.0868 20.602C44.9588 20.258 44.7608 19.984 44.4928 19.78C44.2248 19.576 43.8828 19.474 43.4668 19.474C43.0748 19.474 42.7508 19.57 42.4948 19.762C42.2428 19.954 42.0548 20.222 41.9308 20.566C41.8108 20.91 41.7508 21.306 41.7508 21.754C41.7508 22.202 41.8108 22.598 41.9308 22.942C42.0508 23.286 42.2408 23.556 42.5008 23.752C42.7608 23.948 43.0968 24.046 43.5088 24.046ZM54.0519 25C53.6439 25.08 53.2439 25.114 52.8519 25.102C52.4599 25.09 52.1099 25.014 51.8019 24.874C51.4939 24.734 51.2619 24.514 51.1059 24.214C50.9659 23.946 50.8899 23.674 50.8779 23.398C50.8699 23.118 50.8659 22.802 50.8659 22.45V16.72H52.1259V22.39C52.1259 22.65 52.1279 22.876 52.1319 23.068C52.1399 23.26 52.1819 23.422 52.2579 23.554C52.4019 23.802 52.6299 23.944 52.9419 23.98C53.2579 24.012 53.6279 23.998 54.0519 23.938V25ZM49.6239 19.528V18.52H54.0519V19.528H49.6239ZM59.9661 25V21.814C59.9661 21.562 59.9441 21.304 59.9001 21.04C59.8601 20.772 59.7801 20.524 59.6601 20.296C59.5441 20.068 59.3781 19.884 59.1621 19.744C58.9501 19.604 58.6721 19.534 58.3281 19.534C58.1041 19.534 57.8921 19.572 57.6921 19.648C57.4921 19.72 57.3161 19.838 57.1641 20.002C57.0161 20.166 56.8981 20.382 56.8101 20.65C56.7261 20.918 56.6841 21.244 56.6841 21.628L55.9041 21.334C55.9041 20.746 56.0141 20.228 56.2341 19.78C56.4541 19.328 56.7701 18.976 57.1821 18.724C57.5941 18.472 58.0921 18.346 58.6761 18.346C59.1241 18.346 59.5001 18.418 59.8041 18.562C60.1081 18.706 60.3541 18.896 60.5421 19.132C60.7341 19.364 60.8801 19.618 60.9801 19.894C61.0801 20.17 61.1481 20.44 61.1841 20.704C61.2201 20.968 61.2381 21.2 61.2381 21.4V25H59.9661ZM55.4121 25V16.36H56.5341V21.022H56.6841V25H55.4121ZM65.6749 25.18C65.0309 25.18 64.4649 25.04 63.9769 24.76C63.4929 24.476 63.1149 24.082 62.8429 23.578C62.5749 23.07 62.4409 22.482 62.4409 21.814C62.4409 21.106 62.5729 20.492 62.8369 19.972C63.1049 19.452 63.4769 19.05 63.9529 18.766C64.4289 18.482 64.9829 18.34 65.6149 18.34C66.2749 18.34 66.8369 18.494 67.3009 18.802C67.7649 19.106 68.1109 19.54 68.3389 20.104C68.5709 20.668 68.6629 21.338 68.6149 22.114H67.3609V21.658C67.3529 20.906 67.2089 20.35 66.9289 19.99C66.6529 19.63 66.2309 19.45 65.6629 19.45C65.0349 19.45 64.5629 19.648 64.2469 20.044C63.9309 20.44 63.7729 21.012 63.7729 21.76C63.7729 22.472 63.9309 23.024 64.2469 23.416C64.5629 23.804 65.0189 23.998 65.6149 23.998C66.0069 23.998 66.3449 23.91 66.6289 23.734C66.9169 23.554 67.1409 23.298 67.3009 22.966L68.5309 23.356C68.2789 23.936 67.8969 24.386 67.3849 24.706C66.8729 25.022 66.3029 25.18 65.6749 25.18ZM63.3649 22.114V21.136H67.9909V22.114H63.3649ZM75.4054 25.18C74.7854 25.18 74.2654 25.03 73.8454 24.73C73.4254 24.426 73.1074 24.016 72.8914 23.5C72.6754 22.984 72.5674 22.402 72.5674 21.754C72.5674 21.106 72.6734 20.524 72.8854 20.008C73.1014 19.492 73.4174 19.086 73.8334 18.79C74.2534 18.49 74.7694 18.34 75.3814 18.34C75.9894 18.34 76.5134 18.49 76.9534 18.79C77.3974 19.086 77.7394 19.492 77.9794 20.008C78.2194 20.52 78.3394 21.102 78.3394 21.754C78.3394 22.402 78.2194 22.986 77.9794 23.506C77.7434 24.022 77.4054 24.43 76.9654 24.73C76.5294 25.03 76.0094 25.18 75.4054 25.18ZM72.3574 25V16.36H73.6174V20.338H73.4734V25H72.3574ZM75.2314 24.046C75.6314 24.046 75.9614 23.944 76.2214 23.74C76.4854 23.536 76.6814 23.262 76.8094 22.918C76.9414 22.57 77.0074 22.182 77.0074 21.754C77.0074 21.33 76.9414 20.946 76.8094 20.602C76.6814 20.258 76.4834 19.984 76.2154 19.78C75.9474 19.576 75.6054 19.474 75.1894 19.474C74.7974 19.474 74.4734 19.57 74.2174 19.762C73.9654 19.954 73.7774 20.222 73.6534 20.566C73.5334 20.91 73.4734 21.306 73.4734 21.754C73.4734 22.202 73.5334 22.598 73.6534 22.942C73.7734 23.286 73.9634 23.556 74.2234 23.752C74.4834 23.948 74.8194 24.046 75.2314 24.046ZM82.1062 25.174C81.6582 25.174 81.2822 25.102 80.9782 24.958C80.6742 24.814 80.4262 24.626 80.2342 24.394C80.0462 24.158 79.9022 23.902 79.8022 23.626C79.7022 23.35 79.6342 23.08 79.5982 22.816C79.5622 22.552 79.5442 22.32 79.5442 22.12V18.52H80.8162V21.706C80.8162 21.958 80.8362 22.218 80.8762 22.486C80.9202 22.75 81.0002 22.996 81.1162 23.224C81.2362 23.452 81.4022 23.636 81.6142 23.776C81.8302 23.916 82.1102 23.986 82.4542 23.986C82.6782 23.986 82.8902 23.95 83.0902 23.878C83.2902 23.802 83.4642 23.682 83.6122 23.518C83.7642 23.354 83.8822 23.138 83.9662 22.87C84.0542 22.602 84.0982 22.276 84.0982 21.892L84.8782 22.186C84.8782 22.774 84.7682 23.294 84.5482 23.746C84.3282 24.194 84.0122 24.544 83.6002 24.796C83.1882 25.048 82.6902 25.174 82.1062 25.174ZM84.2482 25V23.128H84.0982V18.52H85.3642V25H84.2482ZM90.755 25C90.347 25.08 89.947 25.114 89.555 25.102C89.163 25.09 88.813 25.014 88.505 24.874C88.197 24.734 87.965 24.514 87.809 24.214C87.669 23.946 87.593 23.674 87.581 23.398C87.573 23.118 87.569 22.802 87.569 22.45V16.72H88.829V22.39C88.829 22.65 88.831 22.876 88.835 23.068C88.843 23.26 88.885 23.422 88.961 23.554C89.105 23.802 89.333 23.944 89.645 23.98C89.961 24.012 90.331 23.998 90.755 23.938V25ZM86.327 19.528V18.52H90.755V19.528H86.327ZM95.105 25C94.697 25.08 94.297 25.114 93.905 25.102C93.513 25.09 93.163 25.014 92.855 24.874C92.547 24.734 92.315 24.514 92.159 24.214C92.019 23.946 91.943 23.674 91.931 23.398C91.923 23.118 91.919 22.802 91.919 22.45V16.72H93.179V22.39C93.179 22.65 93.181 22.876 93.185 23.068C93.193 23.26 93.235 23.422 93.311 23.554C93.455 23.802 93.683 23.944 93.995 23.98C94.311 24.012 94.681 23.998 95.105 23.938V25ZM90.677 19.528V18.52H95.105V19.528H90.677ZM99.2712 25.18C98.6232 25.18 98.0612 25.034 97.5852 24.742C97.1092 24.45 96.7412 24.048 96.4812 23.536C96.2252 23.02 96.0972 22.426 96.0972 21.754C96.0972 21.078 96.2292 20.484 96.4932 19.972C96.7572 19.456 97.1272 19.056 97.6032 18.772C98.0792 18.484 98.6352 18.34 99.2712 18.34C99.9192 18.34 100.481 18.486 100.957 18.778C101.433 19.07 101.801 19.472 102.061 19.984C102.321 20.496 102.451 21.086 102.451 21.754C102.451 22.43 102.319 23.026 102.055 23.542C101.795 24.054 101.427 24.456 100.951 24.748C100.475 25.036 99.9152 25.18 99.2712 25.18ZM99.2712 23.998C99.8912 23.998 100.353 23.79 100.657 23.374C100.965 22.954 101.119 22.414 101.119 21.754C101.119 21.078 100.963 20.538 100.651 20.134C100.343 19.726 99.8832 19.522 99.2712 19.522C98.8512 19.522 98.5052 19.618 98.2332 19.81C97.9612 19.998 97.7592 20.26 97.6272 20.596C97.4952 20.928 97.4292 21.314 97.4292 21.754C97.4292 22.434 97.5852 22.978 97.8972 23.386C98.2092 23.794 98.6672 23.998 99.2712 23.998ZM108.318 25V21.814C108.318 21.562 108.296 21.304 108.252 21.04C108.212 20.772 108.132 20.524 108.012 20.296C107.896 20.068 107.73 19.884 107.514 19.744C107.302 19.604 107.024 19.534 106.68 19.534C106.456 19.534 106.244 19.572 106.044 19.648C105.844 19.72 105.668 19.838 105.516 20.002C105.368 20.166 105.25 20.382 105.162 20.65C105.078 20.918 105.036 21.244 105.036 21.628L104.256 21.334C104.256 20.746 104.366 20.228 104.586 19.78C104.806 19.328 105.122 18.976 105.534 18.724C105.946 18.472 106.444 18.346 107.028 18.346C107.476 18.346 107.852 18.418 108.156 18.562C108.46 18.706 108.706 18.896 108.894 19.132C109.086 19.364 109.232 19.618 109.332 19.894C109.432 20.17 109.5 20.44 109.536 20.704C109.572 20.968 109.59 21.2 109.59 21.4V25H108.318ZM103.764 25V18.52H104.886V20.392H105.036V25H103.764ZM117.263 25C116.855 25.08 116.455 25.114 116.063 25.102C115.671 25.09 115.321 25.014 115.013 24.874C114.705 24.734 114.473 24.514 114.317 24.214C114.177 23.946 114.101 23.674 114.089 23.398C114.081 23.118 114.077 22.802 114.077 22.45V16.72H115.337V22.39C115.337 22.65 115.339 22.876 115.343 23.068C115.351 23.26 115.393 23.422 115.469 23.554C115.613 23.802 115.841 23.944 116.153 23.98C116.469 24.012 116.839 23.998 117.263 23.938V25ZM112.835 19.528V18.52H117.263V19.528H112.835ZM121.15 25.18C120.502 25.18 119.94 25.034 119.464 24.742C118.988 24.45 118.62 24.048 118.36 23.536C118.104 23.02 117.976 22.426 117.976 21.754C117.976 21.078 118.108 20.484 118.372 19.972C118.636 19.456 119.006 19.056 119.482 18.772C119.958 18.484 120.514 18.34 121.15 18.34C121.798 18.34 122.36 18.486 122.836 18.778C123.312 19.07 123.68 19.472 123.94 19.984C124.2 20.496 124.33 21.086 124.33 21.754C124.33 22.43 124.198 23.026 123.934 23.542C123.674 24.054 123.306 24.456 122.83 24.748C122.354 25.036 121.794 25.18 121.15 25.18ZM121.15 23.998C121.77 23.998 122.232 23.79 122.536 23.374C122.844 22.954 122.998 22.414 122.998 21.754C122.998 21.078 122.842 20.538 122.53 20.134C122.222 19.726 121.762 19.522 121.15 19.522C120.73 19.522 120.384 19.618 120.112 19.81C119.84 19.998 119.638 20.26 119.506 20.596C119.374 20.928 119.308 21.314 119.308 21.754C119.308 22.434 119.464 22.978 119.776 23.386C120.088 23.794 120.546 23.998 121.15 23.998ZM130.529 25.174C129.741 25.174 129.099 25 128.603 24.652C128.107 24.304 127.803 23.814 127.691 23.182L128.975 22.984C129.055 23.32 129.239 23.586 129.527 23.782C129.819 23.974 130.181 24.07 130.613 24.07C131.005 24.07 131.311 23.99 131.531 23.83C131.755 23.67 131.867 23.45 131.867 23.17C131.867 23.006 131.827 22.874 131.747 22.774C131.671 22.67 131.509 22.572 131.261 22.48C131.013 22.388 130.635 22.274 130.127 22.138C129.571 21.994 129.129 21.84 128.801 21.676C128.477 21.508 128.245 21.314 128.105 21.094C127.969 20.87 127.901 20.6 127.901 20.284C127.901 19.892 128.005 19.55 128.213 19.258C128.421 18.966 128.713 18.74 129.089 18.58C129.469 18.42 129.913 18.34 130.421 18.34C130.917 18.34 131.359 18.418 131.747 18.574C132.135 18.73 132.449 18.952 132.689 19.24C132.929 19.524 133.073 19.858 133.121 20.242L131.837 20.476C131.793 20.164 131.647 19.918 131.399 19.738C131.151 19.558 130.829 19.46 130.433 19.444C130.053 19.428 129.745 19.492 129.509 19.636C129.273 19.776 129.155 19.97 129.155 20.218C129.155 20.362 129.199 20.484 129.287 20.584C129.379 20.684 129.555 20.78 129.815 20.872C130.075 20.964 130.459 21.074 130.967 21.202C131.511 21.342 131.943 21.498 132.263 21.67C132.583 21.838 132.811 22.04 132.947 22.276C133.087 22.508 133.157 22.79 133.157 23.122C133.157 23.762 132.923 24.264 132.455 24.628C131.991 24.992 131.349 25.174 130.529 25.174ZM138.193 25C137.785 25.08 137.385 25.114 136.993 25.102C136.601 25.09 136.251 25.014 135.943 24.874C135.635 24.734 135.403 24.514 135.247 24.214C135.107 23.946 135.031 23.674 135.019 23.398C135.011 23.118 135.007 22.802 135.007 22.45V16.72H136.267V22.39C136.267 22.65 136.269 22.876 136.273 23.068C136.281 23.26 136.323 23.422 136.399 23.554C136.543 23.802 136.771 23.944 137.083 23.98C137.399 24.012 137.769 23.998 138.193 23.938V25ZM133.765 19.528V18.52H138.193V19.528H133.765ZM141.389 25.18C140.909 25.18 140.507 25.092 140.183 24.916C139.859 24.736 139.613 24.5 139.445 24.208C139.281 23.912 139.199 23.588 139.199 23.236C139.199 22.908 139.257 22.62 139.373 22.372C139.489 22.124 139.661 21.914 139.889 21.742C140.117 21.566 140.397 21.424 140.729 21.316C141.017 21.232 141.343 21.158 141.707 21.094C142.071 21.03 142.453 20.97 142.853 20.914C143.257 20.858 143.657 20.802 144.053 20.746L143.597 20.998C143.605 20.49 143.497 20.114 143.273 19.87C143.053 19.622 142.673 19.498 142.133 19.498C141.793 19.498 141.481 19.578 141.197 19.738C140.913 19.894 140.715 20.154 140.603 20.518L139.433 20.158C139.593 19.602 139.897 19.16 140.345 18.832C140.797 18.504 141.397 18.34 142.145 18.34C142.725 18.34 143.229 18.44 143.657 18.64C144.089 18.836 144.405 19.148 144.605 19.576C144.709 19.788 144.773 20.012 144.797 20.248C144.821 20.484 144.833 20.738 144.833 21.01V25H143.723V23.518L143.939 23.71C143.671 24.206 143.329 24.576 142.913 24.82C142.501 25.06 141.993 25.18 141.389 25.18ZM141.611 24.154C141.967 24.154 142.273 24.092 142.529 23.968C142.785 23.84 142.991 23.678 143.147 23.482C143.303 23.286 143.405 23.082 143.453 22.87C143.521 22.678 143.559 22.462 143.567 22.222C143.579 21.982 143.585 21.79 143.585 21.646L143.993 21.796C143.597 21.856 143.237 21.91 142.913 21.958C142.589 22.006 142.295 22.054 142.031 22.102C141.771 22.146 141.539 22.2 141.335 22.264C141.163 22.324 141.009 22.396 140.873 22.48C140.741 22.564 140.635 22.666 140.555 22.786C140.479 22.906 140.441 23.052 140.441 23.224C140.441 23.392 140.483 23.548 140.567 23.692C140.651 23.832 140.779 23.944 140.951 24.028C141.123 24.112 141.343 24.154 141.611 24.154ZM146.391 25V18.52H147.507V20.092L147.351 19.888C147.431 19.68 147.535 19.49 147.663 19.318C147.791 19.142 147.939 18.998 148.107 18.886C148.271 18.766 148.453 18.674 148.653 18.61C148.857 18.542 149.065 18.502 149.277 18.49C149.489 18.474 149.693 18.484 149.889 18.52V19.696C149.677 19.64 149.441 19.624 149.181 19.648C148.925 19.672 148.689 19.754 148.473 19.894C148.269 20.026 148.107 20.186 147.987 20.374C147.871 20.562 147.787 20.772 147.735 21.004C147.683 21.232 147.657 21.474 147.657 21.73V25H146.391ZM154.739 25C154.331 25.08 153.931 25.114 153.539 25.102C153.147 25.09 152.797 25.014 152.489 24.874C152.181 24.734 151.949 24.514 151.793 24.214C151.653 23.946 151.577 23.674 151.565 23.398C151.557 23.118 151.553 22.802 151.553 22.45V16.72H152.813V22.39C152.813 22.65 152.815 22.876 152.819 23.068C152.827 23.26 152.869 23.422 152.945 23.554C153.089 23.802 153.317 23.944 153.629 23.98C153.945 24.012 154.315 23.998 154.739 23.938V25ZM150.311 19.528V18.52H154.739V19.528H150.311ZM160.986 25.174C160.198 25.174 159.556 25 159.06 24.652C158.564 24.304 158.26 23.814 158.148 23.182L159.432 22.984C159.512 23.32 159.696 23.586 159.984 23.782C160.276 23.974 160.638 24.07 161.07 24.07C161.462 24.07 161.768 23.99 161.988 23.83C162.212 23.67 162.324 23.45 162.324 23.17C162.324 23.006 162.284 22.874 162.204 22.774C162.128 22.67 161.966 22.572 161.718 22.48C161.47 22.388 161.092 22.274 160.584 22.138C160.028 21.994 159.586 21.84 159.258 21.676C158.934 21.508 158.702 21.314 158.562 21.094C158.426 20.87 158.358 20.6 158.358 20.284C158.358 19.892 158.462 19.55 158.67 19.258C158.878 18.966 159.17 18.74 159.546 18.58C159.926 18.42 160.37 18.34 160.878 18.34C161.374 18.34 161.816 18.418 162.204 18.574C162.592 18.73 162.906 18.952 163.146 19.24C163.386 19.524 163.53 19.858 163.578 20.242L162.294 20.476C162.25 20.164 162.104 19.918 161.856 19.738C161.608 19.558 161.286 19.46 160.89 19.444C160.51 19.428 160.202 19.492 159.966 19.636C159.73 19.776 159.612 19.97 159.612 20.218C159.612 20.362 159.656 20.484 159.744 20.584C159.836 20.684 160.012 20.78 160.272 20.872C160.532 20.964 160.916 21.074 161.424 21.202C161.968 21.342 162.4 21.498 162.72 21.67C163.04 21.838 163.268 22.04 163.404 22.276C163.544 22.508 163.614 22.79 163.614 23.122C163.614 23.762 163.38 24.264 162.912 24.628C162.448 24.992 161.806 25.174 160.986 25.174ZM167.984 25.18C167.364 25.18 166.844 25.03 166.424 24.73C166.004 24.426 165.686 24.016 165.47 23.5C165.254 22.984 165.146 22.402 165.146 21.754C165.146 21.106 165.252 20.524 165.464 20.008C165.68 19.492 165.996 19.086 166.412 18.79C166.832 18.49 167.348 18.34 167.96 18.34C168.568 18.34 169.092 18.49 169.532 18.79C169.976 19.086 170.318 19.492 170.558 20.008C170.798 20.52 170.918 21.102 170.918 21.754C170.918 22.402 170.798 22.986 170.558 23.506C170.322 24.022 169.984 24.43 169.544 24.73C169.108 25.03 168.588 25.18 167.984 25.18ZM164.936 27.88V18.52H166.052V23.182H166.196V27.88H164.936ZM167.81 24.046C168.21 24.046 168.54 23.944 168.8 23.74C169.064 23.536 169.26 23.262 169.388 22.918C169.52 22.57 169.586 22.182 169.586 21.754C169.586 21.33 169.52 20.946 169.388 20.602C169.26 20.258 169.062 19.984 168.794 19.78C168.526 19.576 168.184 19.474 167.768 19.474C167.376 19.474 167.052 19.57 166.796 19.762C166.544 19.954 166.356 20.222 166.232 20.566C166.112 20.91 166.052 21.306 166.052 21.754C166.052 22.202 166.112 22.598 166.232 22.942C166.352 23.286 166.542 23.556 166.802 23.752C167.062 23.948 167.398 24.046 167.81 24.046ZM175.116 25.18C174.472 25.18 173.906 25.04 173.418 24.76C172.934 24.476 172.556 24.082 172.284 23.578C172.016 23.07 171.882 22.482 171.882 21.814C171.882 21.106 172.014 20.492 172.278 19.972C172.546 19.452 172.918 19.05 173.394 18.766C173.87 18.482 174.424 18.34 175.056 18.34C175.716 18.34 176.278 18.494 176.742 18.802C177.206 19.106 177.552 19.54 177.78 20.104C178.012 20.668 178.104 21.338 178.056 22.114H176.802V21.658C176.794 20.906 176.65 20.35 176.37 19.99C176.094 19.63 175.672 19.45 175.104 19.45C174.476 19.45 174.004 19.648 173.688 20.044C173.372 20.44 173.214 21.012 173.214 21.76C173.214 22.472 173.372 23.024 173.688 23.416C174.004 23.804 174.46 23.998 175.056 23.998C175.448 23.998 175.786 23.91 176.07 23.734C176.358 23.554 176.582 23.298 176.742 22.966L177.972 23.356C177.72 23.936 177.338 24.386 176.826 24.706C176.314 25.022 175.744 25.18 175.116 25.18ZM172.806 22.114V21.136H177.432V22.114H172.806ZM181.115 25.18C180.635 25.18 180.233 25.092 179.909 24.916C179.585 24.736 179.339 24.5 179.171 24.208C179.007 23.912 178.925 23.588 178.925 23.236C178.925 22.908 178.983 22.62 179.099 22.372C179.215 22.124 179.387 21.914 179.615 21.742C179.843 21.566 180.123 21.424 180.455 21.316C180.743 21.232 181.069 21.158 181.433 21.094C181.797 21.03 182.179 20.97 182.579 20.914C182.983 20.858 183.383 20.802 183.779 20.746L183.323 20.998C183.331 20.49 183.223 20.114 182.999 19.87C182.779 19.622 182.399 19.498 181.859 19.498C181.519 19.498 181.207 19.578 180.923 19.738C180.639 19.894 180.441 20.154 180.329 20.518L179.159 20.158C179.319 19.602 179.623 19.16 180.071 18.832C180.523 18.504 181.123 18.34 181.871 18.34C182.451 18.34 182.955 18.44 183.383 18.64C183.815 18.836 184.131 19.148 184.331 19.576C184.435 19.788 184.499 20.012 184.523 20.248C184.547 20.484 184.559 20.738 184.559 21.01V25H183.449V23.518L183.665 23.71C183.397 24.206 183.055 24.576 182.639 24.82C182.227 25.06 181.719 25.18 181.115 25.18ZM181.337 24.154C181.693 24.154 181.999 24.092 182.255 23.968C182.511 23.84 182.717 23.678 182.873 23.482C183.029 23.286 183.131 23.082 183.179 22.87C183.247 22.678 183.285 22.462 183.293 22.222C183.305 21.982 183.311 21.79 183.311 21.646L183.719 21.796C183.323 21.856 182.963 21.91 182.639 21.958C182.315 22.006 182.021 22.054 181.757 22.102C181.497 22.146 181.265 22.2 181.061 22.264C180.889 22.324 180.735 22.396 180.599 22.48C180.467 22.564 180.361 22.666 180.281 22.786C180.205 22.906 180.167 23.052 180.167 23.224C180.167 23.392 180.209 23.548 180.293 23.692C180.377 23.832 180.505 23.944 180.677 24.028C180.849 24.112 181.069 24.154 181.337 24.154ZM186.111 25L186.117 16.36H187.389V21.64L189.933 18.52H191.529L188.841 21.76L191.805 25H190.101L187.389 21.88V25H186.111ZM192.53 17.458V16.24H193.784V17.458H192.53ZM192.53 25V18.52H193.784V25H192.53ZM200.134 25V21.814C200.134 21.562 200.112 21.304 200.068 21.04C200.028 20.772 199.948 20.524 199.828 20.296C199.712 20.068 199.546 19.884 199.33 19.744C199.118 19.604 198.84 19.534 198.496 19.534C198.272 19.534 198.06 19.572 197.86 19.648C197.66 19.72 197.484 19.838 197.332 20.002C197.184 20.166 197.066 20.382 196.978 20.65C196.894 20.918 196.852 21.244 196.852 21.628L196.072 21.334C196.072 20.746 196.182 20.228 196.402 19.78C196.622 19.328 196.938 18.976 197.35 18.724C197.762 18.472 198.26 18.346 198.844 18.346C199.292 18.346 199.668 18.418 199.972 18.562C200.276 18.706 200.522 18.896 200.71 19.132C200.902 19.364 201.048 19.618 201.148 19.894C201.248 20.17 201.316 20.44 201.352 20.704C201.388 20.968 201.406 21.2 201.406 21.4V25H200.134ZM195.58 25V18.52H196.702V20.392H196.852V25H195.58ZM205.639 28.06C205.291 28.06 204.953 28.006 204.625 27.898C204.301 27.79 204.005 27.63 203.737 27.418C203.469 27.21 203.247 26.952 203.071 26.644L204.229 26.056C204.369 26.332 204.569 26.534 204.829 26.662C205.089 26.79 205.363 26.854 205.651 26.854C206.007 26.854 206.311 26.79 206.563 26.662C206.815 26.538 207.005 26.35 207.133 26.098C207.265 25.846 207.329 25.534 207.325 25.162V23.35H207.475V18.52H208.585V25.174C208.585 25.346 208.579 25.51 208.567 25.666C208.555 25.822 208.533 25.978 208.501 26.134C208.409 26.57 208.233 26.93 207.973 27.214C207.717 27.498 207.389 27.71 206.989 27.85C206.593 27.99 206.143 28.06 205.639 28.06ZM205.543 25.18C204.939 25.18 204.417 25.03 203.977 24.73C203.541 24.43 203.203 24.022 202.963 23.506C202.727 22.986 202.609 22.402 202.609 21.754C202.609 21.102 202.729 20.52 202.969 20.008C203.209 19.492 203.549 19.086 203.989 18.79C204.433 18.49 204.959 18.34 205.567 18.34C206.179 18.34 206.693 18.49 207.109 18.79C207.529 19.086 207.845 19.492 208.057 20.008C208.273 20.524 208.381 21.106 208.381 21.754C208.381 22.402 208.273 22.984 208.057 23.5C207.841 24.016 207.523 24.426 207.103 24.73C206.683 25.03 206.163 25.18 205.543 25.18ZM205.717 24.046C206.129 24.046 206.465 23.948 206.725 23.752C206.985 23.556 207.175 23.286 207.295 22.942C207.415 22.598 207.475 22.202 207.475 21.754C207.475 21.306 207.413 20.91 207.289 20.566C207.169 20.222 206.981 19.954 206.725 19.762C206.473 19.57 206.151 19.474 205.759 19.474C205.343 19.474 205.001 19.576 204.733 19.78C204.465 19.984 204.265 20.258 204.133 20.602C204.005 20.946 203.941 21.33 203.941 21.754C203.941 22.182 204.005 22.57 204.133 22.918C204.265 23.262 204.461 23.536 204.721 23.74C204.985 23.944 205.317 24.046 205.717 24.046Z" fill="#F9FAFB"/>
<path d="M215 20.5L217.5 23L220 20.5" stroke="#F2F3F5" stroke-width="0.8" stroke-linecap="round" stroke-linejoin="round"/>
<path d="M215 17.5L217.5 20L220 17.5" stroke="#9198A3" stroke-width="0.8" stroke-linecap="round" stroke-linejoin="round"/>
</g>
<defs>
<filter id="filter0_d_546_15705" x="0.5" y="0" width="249" height="60" filterUnits="userSpaceOnUse" color-interpolation-filters="sRGB">
<feFlood flood-opacity="0" result="BackgroundImageFix"/>
<feColorMatrix in="SourceAlpha" type="matrix" values="0 0 0 0 0 0 0 0 0 0 0 0 0 0 0 0 0 0 127 0" result="hardAlpha"/>
<feMorphology radius="2" operator="erode" in="SourceAlpha" result="effect1_dropShadow_546_15705"/>
<feOffset dy="10"/>
<feGaussianBlur stdDeviation="9"/>
<feComposite in2="hardAlpha" operator="out"/>
<feColorMatrix type="matrix" values="0 0 0 0 0.0392157 0 0 0 0 0.0352941 0 0 0 0 0.0431373 0 0 0 0.07 0"/>
<feBlend mode="normal" in2="BackgroundImageFix" result="effect1_dropShadow_546_15705"/>
<feBlend mode="normal" in="SourceGraphic" in2="effect1_dropShadow_546_15705" result="shape"/>
</filter>
</defs>
</svg>
