<svg width="19" height="19" viewBox="0 0 19 19" fill="none" xmlns="http://www.w3.org/2000/svg">
<g id="vuesax/bold/timer">
<g id="timer">
<path id="Vector" d="M3.89928 10.3611C3.89928 7.04448 6.59916 4.34459 9.91576 4.34459C13.2316 4.34459 15.9322 7.05125 15.9322 10.3685C15.9322 13.6851 13.2323 16.385 9.91576 16.385C6.59987 16.385 3.89928 13.6784 3.89928 10.3611ZM9.91576 11.1523C10.4818 11.1523 10.9464 10.6877 10.9464 10.1217V6.38115C10.9464 5.81508 10.4818 5.35048 9.91576 5.35048C9.34968 5.35048 8.88508 5.81508 8.88508 6.38115V10.1217C8.88508 10.6877 9.34968 11.1523 9.91576 11.1523Z" stroke="#181826" stroke-width="0.939187"/>
<path id="Vector_2" d="M12.0795 2.50578H7.75543C7.71554 2.50578 7.68639 2.47663 7.68639 2.43674C7.68639 2.38838 7.72393 2.36022 7.75543 2.36022H12.0795C12.1194 2.36022 12.1485 2.38937 12.1485 2.42926C12.1485 2.47763 12.111 2.50578 12.0795 2.50578Z" fill="#9E9FE1" stroke="#181826" stroke-width="0.939187"/>
</g>
</g>
</svg>
