<svg width="13" height="14" viewBox="0 0 13 14" fill="none" xmlns="http://www.w3.org/2000/svg">
<path d="M5 13V9.66667C5 9.31304 5.14048 8.97391 5.39052 8.72386C5.64057 8.47381 5.97971 8.33333 6.33333 8.33333C6.68695 8.33333 7.02609 8.47381 7.27614 8.72386C7.52619 8.97391 7.66667 9.31304 7.66667 9.66667V13M1.66667 1H2.33333C2.51014 1 2.67971 1.07024 2.80474 1.19526C2.92976 1.32029 3 1.48986 3 1.66667V3H5V1.66667C5 1.48986 5.07024 1.32029 5.19526 1.19526C5.32029 1.07024 5.48986 1 5.66667 1H7C7.17681 1 7.34638 1.07024 7.4714 1.19526C7.59643 1.32029 7.66667 1.48986 7.66667 1.66667V3H9.66667V1.66667C9.66667 1.48986 9.7369 1.32029 9.86193 1.19526C9.98695 1.07024 10.1565 1 10.3333 1H11C11.1768 1 11.3464 1.07024 11.4714 1.19526C11.5964 1.32029 11.6667 1.48986 11.6667 1.66667V4.596C11.6667 4.85938 11.5888 5.11687 11.4427 5.336L10.5573 6.664C10.4112 6.88313 10.3333 7.14062 10.3333 7.404V12.3333C10.3333 12.5101 10.2631 12.6797 10.1381 12.8047C10.013 12.9298 9.84348 13 9.66667 13H3C2.82319 13 2.65362 12.9298 2.5286 12.8047C2.40357 12.6797 2.33333 12.5101 2.33333 12.3333V7.404C2.33339 7.14062 2.25545 6.88313 2.10933 6.664L1.224 5.336C1.07789 5.11687 0.999941 4.85938 1 4.596V1.66667C1 1.48986 1.07024 1.32029 1.19526 1.19526C1.32029 1.07024 1.48986 1 1.66667 1Z" stroke="#C5C9CF" stroke-width="1.25" stroke-linecap="round" stroke-linejoin="round"/>
</svg>
