<svg width="40" height="40" viewBox="0 0 40 40" fill="none" xmlns="http://www.w3.org/2000/svg">
<rect width="40" height="40" rx="20" fill="#F1F0FA"/>
<path d="M18 29V24C18 23.4696 18.2107 22.9609 18.5858 22.5858C18.9609 22.2107 19.4696 22 20 22C20.5304 22 21.0391 22.2107 21.4142 22.5858C21.7893 22.9609 22 23.4696 22 24V29M13 11H14C14.2652 11 14.5196 11.1054 14.7071 11.2929C14.8946 11.4804 15 11.7348 15 12V14H18V12C18 11.7348 18.1054 11.4804 18.2929 11.2929C18.4804 11.1054 18.7348 11 19 11H21C21.2652 11 21.5196 11.1054 21.7071 11.2929C21.8946 11.4804 22 11.7348 22 12V14H25V12C25 11.7348 25.1054 11.4804 25.2929 11.2929C25.4804 11.1054 25.7348 11 26 11H27C27.2652 11 27.5196 11.1054 27.7071 11.2929C27.8946 11.4804 28 11.7348 28 12V16.394C28.0001 16.7891 27.8832 17.1753 27.664 17.504L26.336 19.496C26.1168 19.8247 25.9999 20.2109 26 20.606V28C26 28.2652 25.8946 28.5196 25.7071 28.7071C25.5196 28.8946 25.2652 29 25 29H15C14.7348 29 14.4804 28.8946 14.2929 28.7071C14.1054 28.5196 14 28.2652 14 28V20.606C14.0001 20.2109 13.8832 19.8247 13.664 19.496L12.336 17.504C12.1168 17.1753 11.9999 16.7891 12 16.394V12C12 11.7348 12.1054 11.4804 12.2929 11.2929C12.4804 11.1054 12.7348 11 13 11Z" stroke="#5A5FBC" stroke-width="1.5" stroke-linecap="round" stroke-linejoin="round"/>
</svg>
