<svg width="16" height="15" viewBox="0 0 16 15" fill="none" xmlns="http://www.w3.org/2000/svg">
<path id="Vector" d="M15.9932 7.41168C15.9931 7.66435 15.8919 7.90666 15.7118 8.0853L9.95027 13.802C9.76917 13.9756 9.5266 14.0716 9.27483 14.0694C9.02305 14.0673 8.78221 13.967 8.60417 13.7904C8.42613 13.6137 8.32514 13.3748 8.32295 13.125C8.32076 12.8751 8.41755 12.6345 8.59247 12.4548L12.7148 8.36446L1.58932 8.36446C1.33465 8.36446 1.0904 8.26408 0.910319 8.0854C0.730236 7.90672 0.629067 7.66438 0.629067 7.41168C0.629067 7.15899 0.730236 6.91664 0.910319 6.73796C1.0904 6.55928 1.33465 6.4589 1.58932 6.4589L12.7148 6.4589L8.59247 2.3686C8.41755 2.1889 8.32076 1.94823 8.32295 1.69841C8.32514 1.44859 8.42613 1.20962 8.60417 1.03297C8.78221 0.856317 9.02305 0.756113 9.27483 0.753942C9.5266 0.751771 9.76917 0.847807 9.95027 1.02136L15.7118 6.73806C15.8919 6.9167 15.9931 7.15901 15.9932 7.41168Z" fill="white"/>
</svg>
