<svg width="17" height="15" viewBox="0 0 17 15" fill="none" xmlns="http://www.w3.org/2000/svg">
<path id="Vector" d="M0.730469 7.41254C0.730523 7.15986 0.831729 6.91756 1.01182 6.73892L6.77336 1.02222C6.95447 0.848662 7.19703 0.752627 7.4488 0.754798C7.70058 0.756968 7.94143 0.857172 8.11946 1.03383C8.2975 1.21048 8.39849 1.44945 8.40068 1.69927C8.40287 1.94908 8.30608 2.18976 8.13116 2.36946L4.00878 6.45975L15.1343 6.45975C15.389 6.45975 15.6332 6.56014 15.8133 6.73882C15.9934 6.9175 16.0946 7.15984 16.0946 7.41254C16.0946 7.66523 15.9934 7.90758 15.8133 8.08626C15.6332 8.26494 15.389 8.36532 15.1343 8.36532L4.00878 8.36532L8.13116 12.4556C8.30608 12.6353 8.40287 12.876 8.40068 13.1258C8.39849 13.3756 8.2975 13.6146 8.11946 13.7912C7.94143 13.9679 7.70058 14.0681 7.4488 14.0703C7.19703 14.0724 6.95447 13.9764 6.77336 13.8029L1.01182 8.08615C0.831729 7.90752 0.730523 7.66521 0.730469 7.41254Z" fill="white"/>
</svg>
